<svg width="943" height="428" viewBox="0 0 943 428" fill="none" xmlns="http://www.w3.org/2000/svg">
<path d="M53.389 63.8607C40.2339 50.6558 45.7152 39.9106 50.1002 36.1887C55.0333 29.5539 72.7926 16.2843 104.365 16.2843C135.937 16.2843 138.349 39.2634 135.608 50.753C133.416 60.8509 119.347 98.3294 112.587 115.806C102.94 139.109 90.2962 190.569 85.1803 213.387C79.9183 228.145 78.6028 255.461 78.6028 267.274C80.7953 275.43 91.2097 273.585 96.1429 271.643C112.367 270.867 131.04 225.038 138.349 202.221L190.969 26.9647C194.44 21.7863 206.426 12.4005 226.597 16.2843C251.811 21.139 252.907 33.7613 252.907 39.587C252.907 45.4127 228.79 133.769 212.894 187.656C200.177 230.766 197.729 284.266 198.095 305.626C210.153 359.514 276.477 356.601 303.883 355.145C310.941 354.77 378.063 350.452 410.22 347.863L499.565 343.008C523.134 342.037 603.344 343.817 643.174 345.921L712.786 349.804C755.54 352.717 797.746 358.058 819.671 366.311C848.722 375.049 851.097 396.895 846.53 407.576C838.198 424.276 820.768 427.804 813.094 427.48C794.677 417.771 736.356 406.281 709.498 401.75C617.851 380.389 465.581 388.966 400.902 395.924L286.343 410.489C204.124 411.945 190.969 405.148 160.822 380.875C136.704 361.456 132.502 320.352 133.416 302.228C125.376 315.174 101.186 341.357 68.7365 342.522C28.175 343.979 11.1832 322.133 2.41313 298.83C-4.60291 280.188 5.33647 230.216 11.1832 207.561C16.4817 189.76 28.8329 149.692 35.8489 131.827C42.8649 113.962 51.5619 82.9559 55.0334 69.6863L53.389 63.8607Z" fill="#714016"/>
<path fill-rule="evenodd" clip-rule="evenodd" d="M273.188 25.0229C273.627 21.1392 277.756 17.5789 279.766 16.2843C283.194 13.177 304.946 7.86941 315.394 5.60401C365.383 -4.49384 398.709 2.69117 409.124 7.5459C460.867 24.6346 457.359 72.923 449.137 94.9311C437.736 126.778 408.576 146.715 395.421 152.702C437.566 167.538 437.698 205.221 437.629 204.695C438.702 221.687 427.202 247.385 416.249 263.876C406.602 276.304 392.497 287.502 386.65 291.548C359.902 310.578 320.327 322.78 303.883 326.502C257.402 332.716 232.992 318.734 226.597 310.967C222.212 300.481 224.77 284.589 226.597 277.955C243.589 206.59 278.012 62.6957 279.766 58.0351C281.52 53.3746 280.496 48.6493 279.766 46.8692C275.381 40.0726 272.64 29.8777 273.188 25.0229ZM340.06 63.8609C344.445 50.2677 359.427 48.8112 366.37 49.7822C396.626 52.8892 392.132 78.9106 386.102 91.5329C369.439 122.992 348.464 133.122 340.06 134.255C320.766 139.692 321.058 128.753 323.616 122.603L340.06 63.8609ZM342.252 184.258C337.429 183.482 316.856 183.935 307.172 184.258C302.89 204.486 294.373 244.748 294.565 243.972C291.057 257.953 291.642 264.361 292.373 265.818C295.442 271.255 309.364 269.702 315.942 268.245C352.338 257.759 366.187 230.216 368.562 217.756C374.263 192.123 353.397 184.744 342.252 184.258Z" fill="#714016"/>
<path d="M470.514 16.2843C469.783 18.7117 469.856 25.6056 475.995 33.7616C477.274 36.3508 479.942 42.3059 480.38 45.4129C480.819 48.52 486.41 71.9521 489.15 83.2798L501.757 153.188L448.589 243.972L410.22 297.374C402.181 305.95 391.803 323.978 414.605 327.473C420.086 328.444 450.781 333.299 465.581 315.336C477.42 300.966 507.787 253.357 521.49 231.349L540.674 307.569C543.598 313.232 555.255 324.269 578.495 323.104C593.843 321.647 598.776 321.162 604.805 315.336C608.094 313.394 595.304 263.876 588.361 241.544L569.725 153.673L661.262 18.2264C659.618 7.70783 645.586 -8.66881 602.613 9.97337C588.361 27.4504 578.495 43.471 552.185 86.6782C549.262 67.5829 542.099 27.7417 536.837 21.1393C530.26 12.8862 526.971 4.14769 500.113 6.08958H500.111C490.245 6.08958 477.639 6.08958 470.514 16.2843Z" fill="#714016"/>
<path d="M645.915 76.4832C655.598 49.6204 691.958 -1.67799 757.733 4.14769C823.947 12.3034 825.883 57.0642 818.575 78.4251C811.997 107.068 789.524 130.856 751.703 151.246C770.157 156.101 806.407 176.685 803.776 220.183C800.487 274.556 751.703 323.589 697.439 326.502C643.174 329.415 621.249 301.257 614.672 281.838C608.094 262.42 615.22 224.067 643.174 224.067C665.538 224.067 668.936 240.25 667.84 248.341C666.561 258.536 670.69 277.178 697.439 270.187C724.187 263.196 733.067 233.938 734.163 220.183C734.529 206.428 723.201 180.375 674.966 186.2C645.915 180.86 667.84 141.537 688.669 139.595C709.498 137.653 744.578 109.981 754.444 78.4251C764.31 46.8693 717.171 51.7241 712.786 73.5704C708.401 95.4167 689.217 108.524 677.158 111.923C665.099 115.321 634.952 109.981 645.915 76.4832Z" fill="#714016"/>
<path d="M865.166 89.1055L842.145 92.5038C837.394 90.8856 829.318 84.2508 835.019 70.6575C837.65 67.1621 864.252 42.9856 877.225 31.3342L879.965 27.9359C882.889 20.492 891.695 6.08958 903.535 8.03147C911.757 8.03147 934.23 9.00242 943 27.9359C943 47.3548 943 47.8403 934.778 73.5704C928.201 94.1545 913.036 151.732 906.275 177.947C900.429 205.134 891.366 265.915 901.89 291.548C915.045 323.589 863.521 332.813 860.781 331.842C858.04 330.871 810.901 342.037 814.19 291.548C818.575 250.768 837.577 185.553 846.53 158.043L866.81 89.1055H865.166Z" fill="#714016"/>
</svg>
