<svg width="861" height="869" viewBox="0 0 861 869" fill="none" xmlns="http://www.w3.org/2000/svg">
	<path d="M859.019 772.727C846.241 791.537 836.87 812.186 831.282 833.844C807.507 689.065 732.856 729.563 635.697 791.643C622.582 798.825 585.81 818.26 588.545 791.236C631.735 704.353 733.965 654.896 780.207 567.458C788.503 555.169 792.507 540.776 791.667 526.268C790.826 511.76 785.182 497.854 775.515 486.473C765.848 475.092 752.634 466.798 737.702 462.737C722.77 458.677 706.857 459.05 692.162 463.806C609.149 489.719 549.515 552.466 474.903 590.854C355.793 669.149 210.689 598.258 253.008 458.254C333.603 466.62 493.486 430.23 455.408 327.8C378.695 230.811 247.143 350.344 222.893 431.97C-0.784807 392.434 -16.7533 171.174 37.4525 1.48072L32.5392 0C-32.6425 175.061 -13.3854 405.354 215.84 452.701C172.927 572.197 280.626 694.099 415.229 661.19C514.289 638.682 588.228 570.827 673.618 525.146C693.667 515.706 727.071 498.122 738.443 523.665C735.075 565.793 690.894 601.404 663.157 634.721C625.831 675.442 583.077 712.757 556.806 761.917C533.507 798.159 562.115 851.391 611.012 838.064C705.277 808.079 777.829 672.073 822.565 836.806C808.102 818.593 783.416 801.453 757.819 806.191V808.042C787.101 819.74 801.009 844.506 821.733 864.903C823.469 866.79 825.801 868.114 828.393 868.685C830.985 869.257 833.704 869.046 836.16 868.084C838.616 867.122 840.682 865.457 842.063 863.329C843.443 861.202 844.066 858.72 843.843 856.241C842.773 828.033 850.222 800.232 861 773.874L859.019 772.727ZM286.49 387.733C429.137 212.783 534.695 436.413 260.457 435.857C267.146 418.943 275.88 402.797 286.49 387.733ZM827.716 856.796C827.756 856.981 827.716 857.092 827.716 856.796Z" fill="#231F20" />
	<path d="M67.924 170.434C72.9959 229.441 104.418 306.736 150.302 348.123C150.383 348.212 150.429 348.323 150.434 348.439C150.438 348.555 150.401 348.669 150.328 348.763C150.255 348.857 150.15 348.925 150.03 348.957C149.911 348.988 149.784 348.982 149.669 348.938C93.6004 318.656 56.5122 229.441 66.8541 170.545C66.8706 170.43 66.9276 170.324 67.0161 170.243C67.1046 170.162 67.2196 170.112 67.3426 170.099C67.4656 170.086 67.5896 170.112 67.695 170.173C67.8003 170.234 67.881 170.325 67.924 170.434Z" fill="#231F20" />
	<path d="M66.4961 114.239C70.0896 124.911 70.3099 136.326 67.1302 147.112C67.0143 147.537 66.7433 147.912 66.3638 148.171C65.9842 148.43 65.52 148.557 65.0508 148.531C64.5816 148.504 64.1369 148.326 63.7932 148.027C63.4495 147.727 63.2284 147.325 63.1678 146.89C60.6677 136.214 60.4389 125.183 62.4942 114.424C62.5342 113.968 62.7503 113.541 63.1025 113.222C63.4546 112.903 63.9186 112.715 64.4082 112.693C64.8978 112.67 65.3796 112.814 65.7637 113.099C66.1478 113.383 66.408 113.789 66.4961 114.239Z" fill="#231F20" />
	<path d="M473.992 522.147C476.282 517.659 479.597 513.696 483.705 510.537C487.813 507.377 492.613 505.098 497.766 503.859C498.289 503.748 498.834 503.773 499.343 503.931C499.852 504.089 500.304 504.375 500.652 504.756C500.999 505.138 501.227 505.601 501.313 506.096C501.398 506.59 501.336 507.097 501.134 507.561C498.846 512.05 495.531 516.014 491.423 519.174C487.315 522.334 482.514 524.613 477.36 525.849C476.839 525.947 476.3 525.913 475.799 525.75C475.297 525.588 474.851 525.303 474.508 524.925C474.164 524.547 473.935 524.09 473.844 523.602C473.753 523.113 473.804 522.611 473.992 522.147Z" fill="#231F20" />
	<path d="M513.061 495.014C564.176 442.854 668.11 373.704 740.82 414.831C741.125 414.964 741.363 415.201 741.485 415.494C741.607 415.786 741.604 416.111 741.477 416.402C741.35 416.692 741.107 416.925 740.801 417.053C740.494 417.181 740.146 417.194 739.83 417.09C661.849 400.875 582.007 463.289 514.646 497.124C514.346 497.32 513.975 497.397 513.615 497.338C513.255 497.279 512.934 497.089 512.724 496.809C512.514 496.529 512.431 496.183 512.494 495.846C512.557 495.51 512.761 495.21 513.061 495.014Z" fill="#231F20" />
</svg>
