<svg width="240px" height="240px" viewBox="0 0 45 50" fill="none" xmlns="http://www.w3.org/2000/svg">
<path d="M33.0197 23.8929H34.405L34.2249 25.5859H32.8445L33.0197 23.8929ZM44.7149 14.3953V35.6047C44.6678 36.9442 43.987 38.1416 42.791 38.9371L24.423 49.5417C23.3649 50.1527 21.6332 50.1527 20.5751 49.5417L2.20712 38.9371C1.09234 38.2062 0.365523 37.0277 0.283203 35.6047V14.3953C0.283203 13.1734 1.14889 11.6738 2.20712 11.0629L20.5751 0.458251C21.6332 -0.15275 23.3649 -0.15275 24.423 0.458251L42.791 11.0629C43.902 11.813 44.6719 13.1097 44.7149 14.3953ZM35.3253 32.4094L28.9156 28.7005C24.64 35.5448 15.1973 32.2002 15.0938 25.0001C15.4386 17.1877 25.0459 14.8994 28.9152 21.2992L35.3248 17.5901C26.9716 4.1525 7.60146 10.5383 7.68848 25.0001C8.05974 40.5911 27.9636 45.189 35.3253 32.4094ZM36.8555 22.7141H35.7566L35.9546 20.8008H34.7339L34.5304 22.7141H33.1418L33.3398 20.8008H32.1191L31.9156 22.7141H30.752V23.8929H31.7902L31.6101 25.5859H30.4102V26.7648H31.4847L31.2622 28.8574H32.5058L32.7224 26.7648H34.0995L33.877 28.8574H35.1206L35.3372 26.7648H36.5137V25.5859H35.4593L35.6345 23.8929H36.8555V22.7141Z" fill="#0277BD"/>
</svg>
