<svg width="240px" height="240px" viewBox="0 0 47 50" fill="none" xmlns="http://www.w3.org/2000/svg">
<path d="M22.9152 26.0629C24.3234 25.5789 25.7428 25.1213 27.1732 24.6895C27.3616 25.2494 27.6139 28.314 27.5614 28.9989C25.9958 28.1297 24.4475 27.1477 22.9152 26.0629ZM21.9935 26.3116C23.9797 27.5065 25.9234 28.6272 27.5319 29.3848C25.7113 30.7063 23.536 31.8605 21.083 32.8838C21.6268 30.7438 22.0057 28.9245 21.9935 26.3116ZM16.8854 28.3649C17.0024 28.2798 20.9915 26.7373 21.0213 26.7671C21.1418 28.9214 20.7719 30.7058 20.1107 32.7944C18.5796 31.5635 17.5118 30.0831 16.8854 28.3649ZM12.2963 36.0587C13.6148 33.7838 14.8507 31.4107 15.7827 28.9134C15.8064 28.7886 16.0324 28.6874 16.0939 28.7265C16.8288 30.6705 18.1265 32.2859 19.6172 33.4803C17.3385 34.4139 14.7479 35.2727 12.2963 36.0587ZM14.5557 29.3435C13.5709 31.5148 12.2864 33.7807 10.7889 36.114C9.97722 34.6681 9.81215 33.0922 10.2073 31.4035C11.4174 30.7745 12.9043 30.0789 14.5557 29.3435ZM27.6157 29.8701C27.6128 31.9803 27.42 34.1744 27.0827 36.4262C25.1275 35.8839 23.2237 34.9362 21.3554 33.7093C23.5563 32.5874 25.8498 31.2588 27.6157 29.8701ZM8.8626 32.0938C8.49373 33.8612 8.76904 35.34 9.66018 36.8793C7.15517 37.6439 4.61853 38.381 2.05242 39.0927C2.00637 38.3014 3.41878 34.5922 8.8626 32.0938ZM17.8598 40.5409C19.0049 38.4118 19.9905 36.3013 20.6501 34.2284C22.6438 35.3768 24.7769 36.2031 27.0359 36.7432C24.5762 37.9813 21.3666 39.2542 17.8598 40.5409ZM19.4437 34.6209C18.5374 36.8719 17.426 39.048 16.1599 41.1664C14.2252 40.0578 12.707 38.772 11.5601 37.3283C14.1651 36.6643 16.7942 35.757 19.4437 34.6209ZM24.9722 44.1386C22.2039 43.6494 19.6739 42.8716 17.3896 41.7961C18.3306 41.3416 24.0146 38.8738 26.9297 37.2332C26.5196 39.2547 25.8034 41.6302 24.9722 44.1386ZM9.65911 37.8272C7.89478 40.4315 5.88358 43.1479 5.13912 44.3322C3.26803 42.7986 2.19241 41.188 2.03759 39.618C4.39024 39.0525 6.95447 38.4508 9.65911 37.8272ZM5.81143 44.8279L5.51995 44.6279C6.94718 42.5707 8.7671 40.3641 10.6293 38.1963C12.3693 40.2997 14.3508 41.263 14.8323 41.6408C11.8421 42.7237 8.835 43.7859 5.81143 44.8279ZM13.06 47.9448C12.9877 47.9597 12.7345 47.8937 12.7345 47.8597C14.255 45.9931 15.6187 44.1906 16.6705 42.5152C19.0518 43.4352 21.7023 44.1107 24.7525 44.4233C20.5464 45.864 16.2426 47.0056 13.06 47.9448ZM15.3322 42.5525C14.0186 44.636 12.624 46.8399 12.1281 47.7192C9.88562 47.0313 7.54138 46.0952 6.24407 45.1036C9.34017 44.2742 12.3728 43.4256 15.3322 42.5525ZM24.7648 44.7641C24.1364 46.6534 23.1167 49.5424 22.934 49.6213C19.6951 49.1845 16.6751 48.6943 13.9153 48.1405C17.2195 47.4708 21.5714 46.3598 24.7648 44.7641ZM19.0182 0.389623C19.3333 3.04547 20.051 4.53678 20.0141 4.77936C17.629 4.28155 15.0312 3.85771 12.2941 3.47245C14.3674 2.28663 16.627 1.27292 19.0182 0.389623ZM15.6471 7.55523L16.3024 7.65948C17.5261 6.91515 18.8889 6.17207 20.3426 5.4298C17.1933 5.13777 14.0755 4.54807 11.7154 3.77882L15.6471 7.55523ZM11.4186 4.01711C11.4186 4.01711 14.0174 7.24886 14.011 7.25312C12.2617 6.94331 10.7304 6.62273 9.57933 6.21912C9.59372 5.36099 10.6009 4.60948 11.4186 4.01711ZM17.6066 7.8616C18.5748 7.32168 19.6183 6.57782 20.5008 5.81439C21.0136 6.87543 21.5236 7.86184 21.9569 8.58146C20.2555 8.30636 18.0226 7.95695 17.6066 7.8616ZM23.0906 8.73509C21.4293 5.79249 19.9586 2.8661 19.1973 0C15.4356 1.19934 11.9701 2.55122 9.27509 4.30007C7.81324 5.35965 8.02162 5.79548 9.00489 6.71697C18.6847 14.1631 18.2288 23.1494 4.27959 34.6135C-2.16655 40.0543 0.590552 43.8128 6.89223 46.9235C11.3101 48.9604 19.8229 50.1115 23.2957 49.9915C27.3128 43.1079 29.7872 33.8938 28.3531 24.4396C34.5473 22.6117 40.5701 21.1286 46.3137 20.2078C42.1887 12.9282 33.4338 10.3293 23.0906 8.73509ZM10.2538 7.1127C11.0065 7.36931 12.2061 7.68969 13.4685 8.01904C13.8758 9.16675 14.2926 10.588 14.7131 12.1146C13.6177 10.2194 12.0793 8.49176 10.2538 7.1127ZM19.9107 9.29132C18.2614 10.2174 16.7373 11.2304 15.5578 12.4826C15.1509 10.9857 14.6175 9.53891 13.9706 8.14669C13.9706 8.14456 13.9727 8.14456 13.9791 8.14244L13.9812 8.14244C14.3121 8.1806 17.6713 8.90078 19.9107 9.29132ZM21.1064 14.4294C19.3012 13.8579 17.6749 13.3911 16.2918 12.9911C17.2187 11.8876 18.72 10.6701 20.5405 9.38918C21.1306 10.9805 21.2785 12.6769 21.1064 14.4294ZM21.0618 9.46365C23.4353 9.82253 25.8418 10.274 28.2784 10.8104C25.7832 11.9678 23.6217 13.1329 21.983 14.3102C21.9913 12.5227 21.6773 10.911 21.0618 9.46365ZM26.7168 16.942C25.4423 16.2061 24.1049 15.5626 22.7127 14.9995C24.439 13.7168 26.5949 12.4 29.106 11.0551C28.9488 12.6003 28.028 14.7742 26.7168 16.942ZM29.6783 11.1465C32.3149 11.7958 34.9397 12.6863 37.5503 13.8698C34.3799 14.5515 31.0977 15.5387 28.0018 16.825C28.9277 14.9083 29.4683 13.0153 29.6783 11.1465ZM16.1237 19.3695C16.2922 17.9902 16.2151 16.2649 15.9663 14.2975C17.3722 14.5705 18.8179 15.0161 20.3043 15.5846C18.9155 16.7487 17.5213 18.0237 16.1237 19.3695ZM32.0995 22.1758C31.1181 20.6592 29.8306 19.2229 28.1061 17.9015C30.9274 16.6061 34.2366 15.4083 38.0758 14.3166C36.5106 16.7882 34.2031 19.5216 32.0995 22.1758ZM38.6556 14.4698C41.0063 15.6709 43.2952 17.4983 45.5244 19.9078C41.1747 20.2435 37.0955 20.9594 33.0654 21.946C35.1269 20.0888 37.4885 17.419 38.6556 14.4698ZM19.9958 20.9695C20.7837 19.4944 21.399 17.9119 21.7706 16.1777C22.9202 16.6717 24.1325 17.2842 25.3913 17.9845C23.5528 18.8885 21.7569 19.8895 19.9958 20.9695ZM20.8118 16.3729C20.3712 18.2922 19.6014 20.1374 18.4895 21.9056C17.8453 21.2112 17.1149 20.6515 16.2896 20.2397C17.621 18.942 19.1288 17.6531 20.8118 16.3729ZM26.8317 18.8483C28.5345 19.945 30.0553 21.1195 31.34 22.3949C27.7555 23.3513 24.1715 24.5027 20.7198 25.7953C23.1703 23.58 25.2688 21.2492 26.8317 18.8483ZM19.045 22.6348C20.8653 21.5152 22.9345 20.3853 25.252 19.2472C23.672 21.5569 21.8679 23.8337 19.9129 26.0884C19.911 24.9036 19.6128 23.7534 19.045 22.6348ZM13.8663 25.3701C14.6093 24.2506 15.2174 22.994 15.6875 21.5886C16.2866 21.8648 16.8607 22.2454 17.3935 22.6781C16.0354 23.684 14.8016 24.6158 13.8663 25.3701ZM18.2278 23.5906C18.7335 24.0742 19.3043 25.3227 19.3874 26.3118C16.2984 27.4905 13.6462 28.601 11.6899 29.6031C14.2825 27.7072 16.5629 25.7295 18.2278 23.5906ZM12.592 27.116C12.8749 26.7479 12.9302 26.6947 13.3472 26.3947C14.4685 25.5863 17.029 23.8502 17.0588 23.88C15.2218 26.1206 13.039 28.0256 10.4814 29.5669C10.3944 29.5675 12.0101 27.9681 12.592 27.116Z" fill="#F6251F"/>
</svg>
