<svg width="240px" height="240px" viewBox="0 0 51 50" fill="none" xmlns="http://www.w3.org/2000/svg">
<path d="M9.76325 49.9976H42.9047C47.2021 48.934 49.8173 46.4602 50.5 42.3663V7.58919C49.5684 3.9266 47.5074 1.06356 42.9047 0L8.19043 0.0486483C3.83039 0.925009 1.47399 3.62723 0.5 7.58919V42.3663C1.49156 47.6257 5.9768 50.0874 9.76325 49.9976ZM30.397 41.327H13.1455V9.04201C13.1455 9.04201 30.724 9.1172 31.5096 9.24988C36.192 9.88599 38.2628 12.4944 38.6032 15.3859C39.1702 20.2011 37.0981 22.536 34.422 23.7958C43.7794 27.0447 41.6288 40.6537 30.397 41.327ZM20.3247 22.1595L24.3569 22.1263C28.1391 22.0843 28.4224 22.0754 29.031 21.9096C30.9342 21.3921 31.7597 20.2998 31.7597 18.2985C31.7597 16.7639 31.2175 15.771 30.0401 15.1872C28.9978 14.6698 27.8691 14.5614 23.4385 14.5526H20.3247L20.3247 22.1595ZM20.3247 26.9735L20.3247 35.8297L24.731 35.7966C29.6816 35.7634 29.8476 35.7457 31.067 35.1553C32.4701 34.472 33.0942 33.3531 33.0942 31.5265C33.0942 29.1759 32.1602 27.8735 30.0069 27.2233C29.0038 26.8869 24.4068 27.033 20.3247 26.9735Z" fill="#7E57C2"/>
</svg>
