<svg width="240px" height="240px" viewBox="0 0 45 27" fill="none" xmlns="http://www.w3.org/2000/svg">
<path d="M11.5625 9.40625C13.0208 3.57292 16.6667 0.65625 22.5 0.65625C31.25 0.65625 32.3438 7.21875 36.7188 8.3125C39.6354 9.04167 42.1875 7.94792 44.375 5.03125C42.9167 10.8646 39.2708 13.7812 33.4375 13.7812C24.6875 13.7812 23.5938 7.21875 19.2188 6.125C16.3021 5.39583 13.75 6.48958 11.5625 9.40625ZM0.625 22.5312C2.08333 16.6979 5.72917 13.7812 11.5625 13.7812C20.3125 13.7812 21.4062 20.3437 25.7812 21.4375C28.6979 22.1667 31.25 21.0729 33.4375 18.1562C31.9792 23.9896 28.3333 26.9062 22.5 26.9062C13.75 26.9062 12.6562 20.3438 8.28125 19.25C5.36458 18.5208 2.8125 19.6146 0.625 22.5312Z" fill="#44A8B3"/>
</svg>
