<svg width="240px" height="240px" viewBox="0 0 41 42" fill="none" xmlns="http://www.w3.org/2000/svg">
<path fill-rule="evenodd" clip-rule="evenodd" d="M0.100098 0.600098V41.4001H40.9001V0.600098H0.100098ZM31.1021 20.4171V20.4177C31.4933 20.4189 31.938 20.439 32.2724 20.4753C33.6343 20.6226 34.6949 21.2102 35.5972 22.3169C36.0465 22.8682 36.2003 23.1094 36.1675 23.2126C36.1464 23.2792 35.8381 23.5 34.8579 24.1507C33.895 24.7899 33.5848 24.9814 33.5128 24.9814C33.4398 24.9814 33.2876 24.8248 33.0683 24.5241C32.6458 23.9452 32.2146 23.681 31.5478 23.5929C30.8307 23.4979 30.1876 23.7239 29.8726 24.1817C29.6033 24.5729 29.5627 25.2023 29.7767 25.6596C30.0246 26.1894 30.4734 26.4823 32.1933 27.2364C34.1769 28.1062 35.1821 28.7015 35.9142 29.4403C36.7026 30.236 37.102 31.1546 37.2247 32.454C37.2846 33.0874 37.2114 33.838 37.0302 34.4483C36.5857 35.9444 35.3863 37.0399 33.6282 37.5555C33.1422 37.698 32.69 37.7831 32.2427 37.8159C31.5598 37.8662 30.5824 37.8385 29.9941 37.7528C28.5057 37.536 26.8255 36.6699 25.9877 35.6878C25.5764 35.2058 25.0513 34.4124 25.0513 34.2728C25.0513 34.2055 25.0847 34.1672 25.2169 34.0832C25.6091 33.834 27.8563 32.5494 27.8999 32.5494C27.9263 32.5494 28.0437 32.6877 28.1607 32.8568C28.4258 33.2396 29.0777 33.8975 29.4091 34.117C29.6798 34.2963 30.026 34.4402 30.437 34.5441C30.6724 34.6028 30.797 34.6133 31.3106 34.6133C31.8354 34.6131 31.943 34.6043 32.1778 34.5412C32.7988 34.3741 33.2835 34.0283 33.4889 33.6058C33.5789 33.4233 33.5807 33.4005 33.5807 32.9578V32.4988L33.4703 32.2799C33.203 31.7492 32.627 31.3851 30.8058 30.5963C29.9693 30.2339 28.9447 29.723 28.5447 29.4688C27.6319 28.8887 26.9992 28.2255 26.584 27.4137C26.171 26.6064 26.1095 26.3059 26.1085 25.092C26.1074 24.1417 26.1059 24.1534 26.3026 23.5469C26.4811 22.9965 26.8465 22.3817 27.2499 21.953C28.055 21.0972 29.2312 20.5472 30.4905 20.4378C30.6515 20.4225 30.8673 20.4166 31.102 20.4173L31.1021 20.4171ZM20.2661 20.6048H20.2665C22.6918 20.606 24.0821 20.6144 24.1044 20.6284C24.1464 20.6545 24.1517 20.8655 24.1517 22.2126V23.7667L21.7316 23.7755L19.3115 23.7843V30.6556C19.3115 34.4349 19.3038 37.5494 19.2933 37.5769C19.2762 37.6232 19.09 37.6267 17.5154 37.6267H15.7566L15.7384 37.5556C15.7267 37.5166 15.7181 34.402 15.7179 30.6343L15.7173 23.7839L13.2972 23.7753L10.8771 23.7665V22.2308C10.8771 21.0128 10.8855 20.6866 10.918 20.6542C10.9513 20.6199 12.1864 20.6111 17.5082 20.6058C18.5343 20.6048 19.4576 20.6043 20.2661 20.6048Z" fill="#0288D1"/>
</svg>
