<svg width="240px" height="240px" viewBox="0 0 51 20" fill="none" xmlns="http://www.w3.org/2000/svg">
<path d="M2.6876 19.3748H5.36885C5.3782 19.3757 5.38762 19.3757 5.39697 19.3748C6.92799 19.4491 8.43859 18.9992 9.67942 18.0993C10.9202 17.1993 11.8171 15.9032 12.222 14.4248C12.9501 12.2373 13.547 10.3967 14.072 8.8498L14.0907 8.79356C15.2394 7.28278 16.4925 5.85429 17.8407 4.51855H17.8657C19.6688 9.6998 20.3657 18.9467 25.6345 18.9467C25.847 18.9467 26.0688 18.9467 26.2845 18.9311C26.0688 18.9529 25.8626 18.9779 25.6595 18.9779H29.8313C29.5467 18.974 29.2631 18.9426 28.9845 18.8842C28.8153 18.8494 28.6483 18.8045 28.4845 18.7498C28.6485 18.8005 28.8155 18.8412 28.9845 18.8717C29.2637 18.9238 29.5473 18.9489 29.8313 18.9467C30.5025 18.9693 31.1733 18.8924 31.822 18.7186C31.1749 18.9028 30.504 18.9892 29.8313 18.9748H34.0345H35.5782C35.3884 18.9744 35.1997 18.9449 35.0188 18.8873C35.1985 18.9325 35.3836 18.9525 35.5688 18.9467C39.6313 18.9467 43.7345 12.0717 50.5157 0.674805H47.8626V0.74668H47.3751C44.8751 4.92168 43.1251 8.49043 41.6438 11.3404C43.122 8.48731 44.8751 4.92168 47.3751 0.74668H43.3126C43.1782 0.74668 43.047 0.72793 42.9157 0.74668C41.4108 0.678892 39.9275 1.12482 38.7094 2.01126C37.4914 2.89769 36.6109 4.17194 36.2126 5.6248C34.597 10.4717 33.6251 13.6217 32.6876 15.6248C32.2654 16.0102 31.8243 16.3742 31.3657 16.7154C31.1366 16.8863 30.9063 17.0488 30.6751 17.2029C30.863 17.4177 31.0633 17.6211 31.2751 17.8123C31.5804 18.0962 31.9232 18.337 32.2938 18.5279C31.9147 18.3385 31.5635 18.0977 31.2501 17.8123C31.0387 17.6207 30.8384 17.4173 30.6501 17.2029C30.8813 17.0498 31.1095 16.8904 31.3407 16.7154C30.072 14.0748 29.3376 9.59043 27.972 6.09043C29.3376 9.58106 30.0751 14.0686 31.3407 16.7154C31.7803 16.3863 32.2209 16.0227 32.6626 15.6248C30.8313 10.4717 30.1876 1.09356 24.8751 1.09356L22.7845 1.06543C23.1157 1.06543 23.4282 1.15293 23.722 1.15293C23.4095 1.15293 23.097 1.06543 22.7845 1.06543C22.7563 1.06543 22.7282 1.06543 22.697 1.06543C22.7251 1.06543 22.7532 1.06543 22.7845 1.06543H14.3938H14.2501C9.67197 1.04355 3.3626 9.09356 0.521973 19.3748H2.6876ZM36.3001 18.3811L36.2626 18.3998L36.2063 18.4279L36.3063 18.3811H36.3001ZM35.7438 18.6123C35.7531 18.6106 35.7627 18.6106 35.772 18.6123H35.747L35.6907 18.6311L35.7438 18.6123ZM35.2563 18.7717L35.347 18.7467H35.3938L35.4438 18.7279L35.497 18.7123L35.5407 18.6967H35.5001L35.447 18.7123L35.3938 18.7311H35.347L35.2563 18.7561V18.7717ZM13.1813 1.46543C13.0879 1.48059 12.998 1.51234 12.9157 1.55918L12.9688 1.54043L12.7563 1.63106L12.6438 1.68418L13.1813 1.46543ZM14.0032 1.19043C13.9941 1.20206 13.9836 1.21255 13.972 1.22168L13.7501 1.27793H13.7251L13.6626 1.29668C13.683 1.28822 13.7039 1.28404 13.7251 1.27793C13.7334 1.27838 13.7418 1.27838 13.7501 1.27793L13.9751 1.21856C13.9751 1.21856 13.9907 1.19043 14.0032 1.19043C14.0228 1.1768 14.0469 1.16527 14.0688 1.15606C14.047 1.15606 14.0251 1.19043 14.0063 1.19356L14.0032 1.19043ZM14.1001 1.19043L14.0688 1.20605C14.0782 1.19731 14.0887 1.18995 14.1001 1.18418C14.1208 1.17384 14.1429 1.16648 14.1657 1.16231C14.1445 1.16711 14.1236 1.17337 14.1032 1.18106L14.1001 1.19043ZM15.0282 1.10605C14.9313 1.10605 14.8345 1.12481 14.7345 1.13106C14.7486 1.136 14.7622 1.14227 14.7751 1.14981C14.7501 1.14981 14.7251 1.13106 14.7001 1.13106H14.7345H14.7157H14.5657H14.5313C14.5116 1.13339 14.4917 1.13339 14.472 1.13106C14.4607 1.12828 14.4489 1.12828 14.4376 1.13106H14.3751C14.3959 1.13314 14.4168 1.13314 14.4376 1.13106H14.472C14.4917 1.13339 14.5116 1.13339 14.5313 1.13106C14.5426 1.13384 14.5544 1.13384 14.5657 1.13106H14.6876C14.8032 1.13106 14.9126 1.13106 15.0251 1.13106L15.0282 1.10605ZM15.297 1.21856C15.222 1.19981 15.1438 1.18418 15.0657 1.17168C15.1438 1.17168 15.222 1.19981 15.297 1.21856ZM16.9532 2.46856C16.7437 2.11425 16.4765 1.7974 16.1626 1.53106C16.4719 1.79931 16.7358 2.11591 16.9438 2.46856H16.9532ZM27.4063 18.7373C27.6032 18.6873 27.8032 18.6279 28.0032 18.5623C27.7876 18.6154 27.5907 18.6748 27.3938 18.7248L27.4063 18.7373ZM32.5376 18.4248L32.5032 18.4436L32.5407 18.4248H32.5376ZM33.5626 17.5873C33.7927 17.979 34.0949 18.3236 34.4532 18.6029C34.0919 18.3297 33.7882 17.9877 33.5595 17.5967L33.5626 17.5873ZM34.3157 18.9561C34.3417 18.9591 34.3679 18.9591 34.3938 18.9561C34.3632 18.9561 34.3327 18.9519 34.3032 18.9436L34.3157 18.9561ZM34.6282 18.9217H34.5376H34.5126H34.5345H34.6282Z" fill="#26A2C1"/>
</svg>
