<svg width="240px" height="240px" viewBox="0 0 51 38" fill="none" xmlns="http://www.w3.org/2000/svg">
<path d="M50.4501 26.8125C50.3635 26.1229 50.1367 25.4582 49.7836 24.8595C49.4305 24.2608 48.9586 23.7407 48.397 23.3312C47.1113 22.361 45.5483 21.8286 43.9376 21.8125C42.6147 21.7556 41.2936 21.9606 40.0501 22.4156C39.6938 22.5469 39.3407 22.7 38.9813 22.8437C38.9376 22.75 38.872 22.6625 38.8313 22.575C38.3922 21.8487 38.0834 21.0513 37.9188 20.2188C37.8104 19.6079 37.8104 18.9827 37.9188 18.3719C38.0595 17.7844 38.2313 17.2062 38.4157 16.625C38.444 16.5696 38.4597 16.5086 38.4618 16.4464C38.4639 16.3842 38.4524 16.3223 38.4279 16.2651C38.4035 16.2078 38.3668 16.1567 38.3204 16.1152C38.274 16.0737 38.2191 16.0429 38.1595 16.025C38.0608 15.9759 37.9555 15.9411 37.847 15.9219C37.1565 15.8233 36.4528 15.8756 35.7845 16.075C35.6687 16.0984 35.5626 16.1558 35.4797 16.2399C35.3967 16.324 35.3407 16.4308 35.3188 16.5469C35.2876 16.7 35.2251 16.8594 35.1845 16.9969C35.0435 17.6378 34.8469 18.2651 34.597 18.8719C33.8813 20.3688 33.0657 21.8063 32.2282 23.2469C32.1376 23.4 32.0438 23.5594 31.9157 23.7406C31.5908 23.1723 31.3537 22.558 31.2126 21.9188C31.0695 21.1966 31.0695 20.4534 31.2126 19.7313C31.347 19.1875 31.5251 18.6531 31.6876 18.1187C31.7125 18.0727 31.7275 18.022 31.7314 17.9698C31.7354 17.9176 31.7283 17.8651 31.7106 17.8159C31.6929 17.7666 31.665 17.7216 31.6287 17.6839C31.5925 17.6462 31.5486 17.6165 31.5001 17.5969C31.3879 17.5122 31.2607 17.4496 31.1251 17.4125C30.4098 17.3027 29.6786 17.3626 28.9907 17.5875C28.8919 17.618 28.803 17.6744 28.7333 17.7508C28.6635 17.8271 28.6154 17.9207 28.5938 18.0219C28.4257 18.6902 28.217 19.3477 27.9688 19.9906C26.8626 22.5375 25.7251 25.075 24.5876 27.6062C24.3501 28.1344 24.072 28.6469 23.8032 29.1687C23.7273 29.2965 23.6438 29.4196 23.5532 29.5375C23.5007 29.4869 23.4675 29.4194 23.4595 29.3469C23.4303 29.0235 23.4314 28.6982 23.4626 28.375C23.6501 27.4375 23.8657 26.475 24.0876 25.5312C24.2751 24.7531 24.4938 23.9688 24.7126 23.2031C24.7581 23.0837 24.7714 22.9544 24.7511 22.8283C24.7308 22.7021 24.6776 22.5835 24.597 22.4844C24.4263 22.3051 24.1985 22.1908 23.9527 22.1611C23.707 22.1315 23.4585 22.1883 23.2501 22.3219C23.2095 22.3531 23.1595 22.3719 23.0782 22.4188C23.0782 22.2969 23.1001 22.2188 23.1126 22.1406C23.2134 21.553 23.1921 20.9509 23.0501 20.3719C22.9833 20.0384 22.7974 19.7406 22.5272 19.5341C22.2569 19.3277 21.9207 19.2267 21.5813 19.25C21.2257 19.2574 20.8738 19.325 20.5407 19.45C19.2207 20.01 18.0785 20.9198 17.2376 22.0813C17.1521 22.1889 17.0459 22.2782 16.9251 22.3438C15.772 22.9875 14.6126 23.6219 13.4563 24.2594L12.1688 24.9688C11.8251 24.625 11.5095 24.2844 11.1532 24C10.0657 23.1094 8.96572 22.2406 7.86572 21.3594C6.8673 20.6139 5.98117 19.7288 5.23447 18.7313C4.68371 17.9861 4.36617 17.0943 4.32197 16.1687C4.29268 14.9865 4.61105 13.8217 5.2376 12.8187C6.04534 11.5358 7.07369 10.4059 8.2751 9.48125C9.52536 8.47909 10.8594 7.58622 12.2626 6.8125C14.1957 5.68204 16.249 4.77118 18.3845 4.09687C20.5636 3.38182 22.8659 3.11917 25.1501 3.325C26.0594 3.40386 26.9441 3.66195 27.7532 4.08437C28.3853 4.38373 28.8761 4.91716 29.122 5.57188C29.3395 6.24678 29.3611 6.96952 29.1845 7.65625C28.8283 9.02725 28.1131 10.2785 27.1126 11.2813C25.5338 12.952 23.5674 14.2078 21.3876 14.9375C20.1305 15.3804 18.822 15.6608 17.4938 15.7719C16.4168 15.8806 15.329 15.7483 14.3095 15.3844C13.63 15.1449 13.0246 14.7324 12.5532 14.1875C12.5377 14.1567 12.5162 14.1293 12.49 14.1068C12.4638 14.0843 12.4334 14.0672 12.4006 14.0565C12.3678 14.0457 12.3332 14.0416 12.2988 14.0442C12.2644 14.0468 12.2309 14.0562 12.2001 14.0719C12.1338 14.1101 12.0839 14.1712 12.0597 14.2438C12.0355 14.3164 12.0387 14.3953 12.0688 14.4656C12.1468 14.7208 12.2515 14.9669 12.3813 15.2C12.7366 15.7421 13.2126 16.1945 13.772 16.5219C14.8183 17.1379 16.0109 17.4617 17.2251 17.4594C19.0652 17.5183 20.9029 17.283 22.6688 16.7625C25.1832 16.1081 27.452 14.7342 29.197 12.8094C30.7193 11.2337 31.6878 9.20566 31.9563 7.03125C32.0986 5.94292 31.9182 4.83677 31.4376 3.85C30.8779 2.80811 30.0028 1.97015 28.9376 1.45625C27.4079 0.695098 25.73 0.278045 24.022 0.234375H22.3063C20.2411 0.342684 18.2043 0.764161 16.2657 1.48437C14.7869 2.01915 13.3397 2.63786 11.9313 3.3375C8.83754 4.79521 6.0371 6.80763 3.66885 9.275C2.47095 10.5065 1.54288 11.9742 0.943848 13.5844C0.778223 14.0688 0.675098 14.5813 0.556348 15.0813C0.556348 15.1219 0.593848 15.1625 0.490723 15.2031V15.9094C0.56918 16.0811 0.622841 16.2632 0.650098 16.45C0.972802 17.5985 1.55072 18.6592 2.34072 19.5531C3.4575 20.826 4.72878 21.9545 6.1251 22.9125C7.32822 23.775 8.5376 24.625 9.73447 25.4688C9.94072 25.6156 10.1313 25.7812 10.3595 25.9625C10.1688 26.0656 10.0063 26.1594 9.84072 26.2437C8.25402 27.0348 6.74708 27.9766 5.34072 29.0563C4.46879 29.6781 3.71167 30.4468 3.10322 31.3281C2.61825 32.0018 2.31199 32.7873 2.21308 33.6115C2.11416 34.4356 2.22581 35.2714 2.5376 36.0406C2.72885 36.528 3.05381 36.9516 3.4751 37.2625C3.61251 37.3715 3.7695 37.4531 3.9376 37.5031C4.3626 37.5906 4.79385 37.6562 5.22197 37.75H6.4376C7.75343 37.6319 9.01472 37.1684 10.0938 36.4062C11.7922 35.2772 12.9993 33.5463 13.472 31.5625C13.8498 30.0946 13.8326 28.5528 13.422 27.0938C13.3751 26.9438 13.3126 26.8125 13.272 26.675C13.2313 26.5375 13.1595 26.4125 13.0876 26.2469L15.8313 24.6625L15.872 24.6969C15.822 24.8594 15.7688 25.0094 15.7251 25.1906C15.3694 26.3743 15.212 27.6087 15.2595 28.8438C15.3166 30.1557 15.7399 31.4255 16.4813 32.5094C16.6443 32.7201 16.8528 32.8912 17.0912 33.0099C17.3296 33.1286 17.5918 33.1918 17.8582 33.1948C18.1245 33.1978 18.3881 33.1405 18.6291 33.0272C18.8702 32.914 19.0825 32.7476 19.2501 32.5406C19.489 32.2252 19.6983 31.8884 19.8751 31.5344C20.322 30.5969 20.7376 29.6594 21.1626 28.7219C21.1813 28.6812 21.197 28.6406 21.2376 28.55C21.2063 28.9937 21.172 29.3844 21.1532 29.775C21.1081 30.3812 21.1813 30.9905 21.3688 31.5688C21.4267 31.8127 21.5576 32.0332 21.7441 32.2007C21.9306 32.3682 22.1639 32.4748 22.4126 32.5062C22.5916 32.5165 22.7707 32.4899 22.9389 32.4281C23.1072 32.3662 23.261 32.2705 23.3907 32.1469C23.8324 31.7973 24.1982 31.3613 24.4657 30.8656C25.2251 29.4656 26.0032 28.0781 26.6907 26.6438C27.4345 25.0813 28.0845 23.4969 28.7751 21.9188C28.8126 21.8313 28.847 21.7437 28.8907 21.6375C29.0532 22.2812 29.1688 22.9125 29.3782 23.5125C29.6259 24.2052 29.9171 24.8816 30.2501 25.5375C30.3294 25.655 30.3649 25.7966 30.3507 25.9376C30.3364 26.0786 30.2732 26.2101 30.172 26.3094C29.272 27.4 28.3876 28.4969 27.5032 29.6031C27.3028 29.8431 27.118 30.0957 26.9501 30.3594C26.8509 30.5272 26.7861 30.7131 26.7595 30.9063C26.7318 31.0839 26.774 31.2654 26.8771 31.4128C26.9802 31.5601 27.1362 31.6619 27.3126 31.6969C27.6675 31.7742 28.0315 31.8005 28.3938 31.775C29.6076 31.6896 30.7708 31.2555 31.7438 30.525C32.3374 30.1093 32.7889 29.5212 33.0371 28.8404C33.2853 28.1596 33.3182 27.4189 33.1314 26.7188C33.0352 26.2997 32.9088 25.8882 32.7532 25.4875C32.7156 25.4107 32.7003 25.3248 32.7092 25.2397C32.718 25.1546 32.7506 25.0737 32.8032 25.0063C33.8146 23.5256 34.723 21.9771 35.522 20.3719C35.5549 20.3027 35.5958 20.2377 35.6438 20.1781C35.8718 21.5551 36.337 22.8821 37.0188 24.1C36.6563 24.4531 36.2938 24.7719 35.9688 25.125C35.2227 25.8704 34.6535 26.7739 34.3032 27.7687C34.1417 28.2048 34.0788 28.6711 34.1189 29.1344C34.1293 29.3014 34.1761 29.4641 34.2561 29.6112C34.3361 29.7582 34.4473 29.8859 34.5819 29.9853C34.7165 30.0848 34.8713 30.1536 35.0353 30.1869C35.1993 30.2202 35.3686 30.2172 35.5313 30.1781C37.0545 29.8758 38.4166 29.0321 39.3657 27.8031C39.6622 27.3981 39.8567 26.9277 39.9328 26.4316C40.009 25.9355 39.9645 25.4284 39.8032 24.9531C39.7345 24.6562 39.647 24.3844 39.5626 24.0688C39.9407 23.95 40.3126 23.8094 40.6939 23.7219C42.6384 23.2471 44.6806 23.3669 46.5563 24.0656C47.1076 24.2516 47.6169 24.5443 48.0549 24.9272C48.493 25.31 48.8514 25.7755 49.1095 26.2969C49.4388 26.8908 49.5208 27.5906 49.3377 28.2446C49.1547 28.8986 48.7212 29.454 48.1313 29.7906C48.0064 29.8597 47.8882 29.9402 47.7782 30.0312C47.7467 30.0679 47.7232 30.1108 47.7092 30.157C47.6952 30.2033 47.691 30.252 47.697 30.3C47.7216 30.3334 47.7535 30.3606 47.7904 30.3796C47.8273 30.3986 47.868 30.4088 47.9095 30.4094C48.3076 30.3743 48.6852 30.2171 48.9907 29.9594C49.3927 29.7023 49.7335 29.3604 49.9894 28.9577C50.2453 28.555 50.41 28.1012 50.472 27.6281C50.472 27.6 50.4345 27.5719 50.5345 27.5438V26.8813C50.4313 26.8531 50.4751 26.8281 50.472 26.7969L50.4501 26.8125ZM11.5938 29.5094C11.5309 30.3572 11.2989 31.1839 10.9114 31.9407C10.5238 32.6974 9.98875 33.369 9.3376 33.9156C8.61734 34.5866 7.719 35.0357 6.7501 35.2094C6.39205 35.2888 6.01865 35.2628 5.6751 35.1344C5.46574 35.0357 5.29273 34.8736 5.18056 34.6712C5.0684 34.4687 5.02275 34.2361 5.0501 34.0063C5.06205 33.2717 5.27146 32.5539 5.65635 31.9281C6.14294 31.1203 6.77934 30.4128 7.53135 29.8438C8.69766 28.9168 9.9336 28.081 11.2282 27.3438C11.2597 27.3283 11.292 27.3147 11.3251 27.3031C11.5293 28.0197 11.6096 28.7658 11.5626 29.5094H11.5938ZM21.6282 21.7438C21.5394 22.3157 21.4142 22.8815 21.2532 23.4375C20.663 25.3433 19.9596 27.2123 19.147 29.0344C18.9837 29.3677 18.8011 29.6911 18.6001 30.0031C18.5685 30.0525 18.5307 30.0977 18.4876 30.1375C18.2563 30.3656 18.0376 30.3531 17.922 30.0531C17.793 29.7 17.6957 29.336 17.6313 28.9656C17.5978 28.7139 17.5811 28.4602 17.5813 28.2063C17.612 26.4474 18.1278 24.7312 19.072 23.2469C19.4143 22.6018 19.9035 22.0462 20.5001 21.625C20.6948 21.5028 20.905 21.4071 21.1251 21.3406C21.4626 21.2437 21.672 21.4031 21.6157 21.7438H21.6282ZM28.4751 30.4938L30.9345 27.6062C30.8668 28.2819 30.5953 28.9211 30.1561 29.439C29.7169 29.9569 29.1307 30.3291 28.4751 30.5063V30.4938ZM36.3345 28.5531C36.1595 28.6531 35.972 28.725 35.7907 28.8188C35.6095 28.9125 35.5751 28.8188 35.5688 28.6781C35.5669 28.581 35.5795 28.484 35.6063 28.3906C35.9207 27.2323 36.5644 26.1902 37.4595 25.3906C37.4789 25.3768 37.4999 25.3653 37.522 25.3563C37.7311 25.9441 37.7263 26.5868 37.5086 27.1714C37.2908 27.7561 36.874 28.2453 36.3313 28.5531H36.3345Z" fill="#F03D70"/>
</svg>
