<svg width="240px" height="240px" viewBox="0 0 51 48" fill="none" xmlns="http://www.w3.org/2000/svg">
<path d="M20.4158 3.44467C8.33595 -0.356547 1.42737 3.10295 1.91807 13.2825C1.97066 14.2609 2.32149 16.2904 2.92817 18.8097C3.53483 21.3287 4.38822 24.2864 5.43766 26.9424C6.48706 29.5981 7.69862 31.9399 9.20978 33.3064C9.96534 33.9896 10.8614 34.4507 11.8455 34.4118C12.8296 34.373 13.7657 33.8373 14.6076 32.8959C16.6158 30.6481 18.2625 29.0269 18.5848 28.7112C19.4528 29.1456 20.2999 29.4191 21.5014 29.4311C20.462 30.6869 20.2965 31.0965 18.5757 31.3317C16.6801 31.5907 14.8812 32.2405 15.843 33.8123C16.5339 34.9413 21.6921 36.1087 24.6771 33.4644C24.7318 41.3465 24.4596 47.7917 32.095 46.6344C38.3029 45.6935 37.9345 41.5769 39.071 32.9274C44.8095 34.0256 50.6116 30.4181 48.6512 28.7111C47.6484 27.7643 44.2293 29.7132 41.644 28.4898C45.7333 23.329 50.7399 10.3279 47.8622 6.17665C43.7679 1.43372 37.1252 0.234343 30.2634 2.27611C25.8887 1.34826 22.7865 1.95528 20.4158 3.44467ZM32.6937 3.04946C40.3844 1.53907 47.7707 4.99457 47.356 9.91908C46.8042 16.47 44.2094 22.0379 40.806 27.2264C40.723 27.1315 40.6395 27.0411 40.5534 26.9422C42.6015 23.4211 41.3671 21.1025 41.311 18.1148C41.2837 16.6611 41.9858 13.5347 41.7489 12.9015C40.4948 9.54846 38.8782 5.85946 32.6937 3.04946ZM26.6176 3.19196C33.9737 3.42207 38.0751 7.71647 40.1592 12.5719C34.8997 12.1147 33.3524 14.5331 34.3356 18.1937C35.0333 20.4696 36.1099 22.6014 37.3659 24.526C38.0888 25.5837 37.8899 25.9817 39.8754 28.3317C38.1005 28.8007 37.7237 30.0087 37.7443 31.5371C37.6528 32.6719 36.8717 38.7993 36.4817 40.9014C35.8939 44.2644 34.0526 44.8875 31.7942 45.323C25.9208 46.1712 26.1474 42.279 26.1591 30.9535C26.0373 29.3457 24.547 28.13 23.0031 28.4268C23.8107 25.0186 26.7239 22.648 24.9286 15.6203C23.9564 12.0549 20.1262 12.1774 16.5322 13.9464C17.194 7.30822 20.3133 3.14356 26.6176 3.19196ZM14.8751 21.6364C14.4948 24.1665 15.5612 26.5133 17.3688 27.953C16.4218 28.9818 14.8602 30.3776 14.177 31.2812C11.4793 34.8491 9.74049 32.9928 6.79468 26.4683C3.69967 16.7241 1.37018 10.1439 5.57938 5.46607C8.86081 2.50499 13.747 2.95424 19.1206 4.4395C17.773 5.66643 16.8694 7.17876 16.2639 8.67159C14.153 14.3952 15.5614 17.2136 14.8751 21.6364ZM39.6385 25.7105C38.1562 23.156 36.1604 19.6778 35.7402 17.8779C35.003 14.9791 35.8181 13.4439 40.3488 13.9459C40.3218 15.2695 39.9339 16.3573 39.8753 18.0674C39.8652 20.5659 40.8706 23.7093 39.6385 25.7105ZM21.583 28.079C18.4493 28.0743 15.782 25.244 16.2957 21.8256C16.6086 19.8456 16.5952 17.7567 16.4377 15.6196C18.7446 14.0667 23.0047 13.0069 23.5243 15.9041C25.1924 22.9834 22.7975 23.7437 21.583 28.079ZM39.0071 14.8619C38.9198 14.1895 36.4892 14.5053 36.5765 15.1778C36.7831 15.8908 38.2569 16.3669 38.9803 15.0431C39.0056 14.9968 39.012 14.9106 39.0071 14.8619ZM22.6875 15.9518C23.638 14.9135 20.3508 14.3663 20.1781 15.3043C20.0744 15.8466 21.5022 17.1541 22.6875 15.9518ZM47.1507 29.8795C44.5703 32.0843 40.4023 32.0613 39.1964 31.5058C39.2087 30.5099 39.1703 29.7726 40.7115 29.5163C41.8835 30.3455 43.9486 30.506 47.1507 29.8795ZM17.1793 33.101C17.7083 32.764 19.493 32.6027 20.5983 32.1189C21.4848 31.7308 22.0145 30.9208 22.855 30.0337C23.6495 29.0545 25.1756 30.4578 24.5657 31.5534C22.429 34.4114 18.6064 33.8699 17.1793 33.101ZM1.559 19.1412C-2.77557 3.02024 6.73733 -2.00111 20.2338 2.04942C22.922 0.570234 26.2955 0.172541 30.3781 0.894172C37.5922 -1.08906 45.0318 0.29518 49.2778 5.78386C51.6042 9.61797 49.3104 19.2366 44.0198 27.5921C47.6342 27.4297 47.7838 26.4944 49.5589 27.6871C53.0319 30.9384 46.2159 35.0427 40.1425 34.4922C40.1007 34.6937 40.0659 34.9198 40.0317 35.1727C39.8962 39.8668 39.199 42.7596 37.6737 44.7791C36.1319 46.8201 33.8165 47.4699 31.9921 47.8334C24.5711 48.9188 23.5451 43.1045 23.5095 35.7741C20.2852 37.1613 15.9921 36.2058 14.7737 34.6979C12.1928 36.5779 9.88409 35.742 8.23757 34.3181C5.20403 31.4331 3.43118 26.2564 1.559 19.1412Z" fill="#0DA8E8"/>
</svg>
