<svg width="240px" height="240px" viewBox="0 0 49 50" fill="none" xmlns="http://www.w3.org/2000/svg">
<path fill-rule="evenodd" clip-rule="evenodd" d="M20.1823 5.51653L10.7698 0.104829C10.5275 -0.0349431 10.2296 -0.0349431 9.98732 0.104829L0.574811 5.51653C0.311866 5.66201 0.187043 5.8918 0.183594 6.19568V38.3899C0.183594 38.6695 0.334337 38.9293 0.576605 39.0691L19.4034 49.8925C19.6755 50.037 19.9042 50.0341 20.1841 49.8943L39.0109 39.0709C39.2549 38.9311 39.4039 38.6731 39.4039 38.3917V28.1131L48.4234 22.9272C48.6675 22.7874 48.8164 22.5294 48.8164 22.248V11.516C48.8164 11.3222 48.6999 10.997 48.4162 10.8369L39.0037 5.42515C38.7614 5.28538 38.4635 5.28538 38.2213 5.42515L28.8087 10.8369C28.552 10.983 28.4175 11.2215 28.4175 11.516V21.7946L20.5735 26.305V6.19568C20.5735 5.95934 20.4348 5.6518 20.1823 5.51653ZM19.7803 37.4886L11.9506 33.0643L29.1946 23.1512L37.0315 27.6561L19.7803 37.4886ZM37.8247 17.3811V26.305L29.9788 21.7946V12.8707L37.8247 17.3811ZM38.6089 7.00744L46.4494 11.516L38.6089 16.0246L30.7684 11.516L38.6089 7.00744ZM11.1538 31.7167V12.0608L18.9996 7.5504V27.2046L11.1538 31.7167ZM10.3696 1.68892L18.21 6.19748L10.3696 10.706L2.52908 6.19748L10.3696 1.68892ZM20.5663 47.8586V38.8451L37.8247 29.0073V37.9366L20.5663 47.8586ZM39.3931 26.305V17.3811L47.239 12.8707V21.7946L39.3931 26.305ZM19.0032 38.8451L19.0032 47.8568L1.73947 37.9366V7.5504L9.58533 12.0608L9.58532 33.5234L19.0032 38.8451Z" fill="#F52D21"/>
</svg>
