<svg width="201" height="302" viewBox="0 0 201 302" fill="none" xmlns="http://www.w3.org/2000/svg">
<path d="M-44 2.75098V307.804H199L131.229 48.1542L-44 2.75098Z" fill="white" stroke="black" stroke-width="3"/>
<path fill-rule="evenodd" clip-rule="evenodd" d="M189.496 202.953C186.479 203.234 183.462 203.514 180.446 203.795C165.997 204.841 151.555 207.026 137.217 208.337C136.86 207.786 136.162 207.877 135.737 208.26C134.307 208.141 132.703 207.105 131.407 208.183C131.365 208.177 131.323 208.17 131.281 208.167C128.973 203.969 127.378 199.492 125.83 195.01C124.842 192.253 123.513 189.585 121.056 187.735C116.864 184.977 107.258 179.384 102.335 179.619C102.253 178.784 101.843 177.923 101.168 177.366C102.655 174.964 96.7095 173.396 96.2901 173.675C96.5589 165.648 92.575 158.677 83.7905 157.079C75.9207 155.525 64.7272 155.264 60.4946 163.058C60.0294 163.009 55.2735 162.985 54.8133 163.034C54.0979 162.175 46.2409 170.313 49.4612 173.146C20.6712 185.216 4.30116 183.776 -3.66744 217.708C-4.74473 220.896 -4.82319 224.384 -5.96074 227.5C-10.0079 236.457 -13.2905 245.994 -14.1074 255.739C-16.0805 256.218 -16.3075 259.515 -14.022 259.992C-13.149 260.175 -12.419 260.424 -11.7824 260.896C-12.28 268.882 -10.242 287.126 -8.95785 287.069C-6.33951 294.967 5.3397 297.196 13.6082 294.421C12.1828 296.962 13.6082 298.56 13.6082 299.918C43.3604 300.985 75.8913 300.37 105.635 301.833C109.44 301.782 113.442 302.719 117.195 302.18C119.483 301.66 119.487 298.249 117.166 297.828L127.309 295.74C127.082 295.659 131.49 292.88 134.822 287.687C137.923 281.879 135.812 274.867 137.217 268.549C148.192 267.698 159.347 267.335 170.201 265.573C171.681 269.77 178.088 264.751 180.124 262.732C180.121 262.729 180.119 262.726 180.116 262.723C181.102 262.467 181.892 261.592 181.919 260.555C182.61 259.62 182.755 258.301 182.092 257.396C185.13 240.784 189.761 223.822 191.435 207.054C192.026 206.929 192.584 206.684 193.056 206.305L193.018 206.268C193.818 205.423 193.974 203.963 192.639 203.244C191.563 202.664 190.664 202.844 189.496 202.953Z" fill="#ECB998"/>
<path fill-rule="evenodd" clip-rule="evenodd" d="M74.7604 265.129L77.0844 266.53L96.0984 272.337L107.718 273.739L117.225 272.337V287.754L119.127 302.171C118.282 303.639 110.253 303.639 95.0421 302.171C85.3453 301.235 49.9061 300.781 41.8373 300.581L41.3801 300.569C31.8985 300.31 22.5323 300.31 13.2815 300.569V295.163L39.69 282.749L63.352 270.135L74.7604 265.129ZM61.2877 161.798L63.034 163.034L59.2212 168.971L77.7944 183.209V194.582L83.6745 199.853L87.0355 194.582L91.7715 188.613L95.1372 178.937L93.9912 172.562L96.2958 172.357C96.3069 172.792 96.305 173.232 96.2902 173.675C96.7096 173.396 102.655 174.964 101.168 177.366C101.843 177.923 102.254 178.784 102.335 179.619C107.258 179.384 116.864 184.977 121.056 187.735C123.513 189.585 124.842 192.253 125.83 195.01L126.063 195.682L126.303 196.372L126.545 197.062C127.882 200.853 129.326 204.61 131.281 208.167C131.323 208.17 131.365 208.177 131.407 208.183C132.703 207.105 134.307 208.141 135.738 208.26C136.152 207.886 136.828 207.791 137.192 208.3L137.218 208.337L119.393 211.665L107.633 250.758L97.3926 242.88L91.8958 243.655L77.3798 248.616L60.4968 252.773L21.9552 262.843H17.0471L-11.513 256.307L-14.0869 255.502C-13.237 245.839 -9.97487 236.384 -5.96065 227.5C-4.82309 224.384 -4.74463 220.896 -3.66735 217.708C4.30125 183.776 20.6713 185.216 49.4613 173.146C46.241 170.313 54.098 162.175 54.8134 163.034L54.8585 163.03L54.956 163.025L55.0816 163.021C56.2048 162.99 60.0772 163.014 60.4947 163.058C60.7369 162.612 61.0019 162.193 61.2877 161.798Z" fill="#EFE6DF"/>
<path fill-rule="evenodd" clip-rule="evenodd" d="M192.345 204.14L191.814 206.944C191.688 206.983 191.559 207.017 191.429 207.044C191.263 208.716 191.066 210.389 190.845 212.064L187.553 229.452C186.986 232.528 186.447 235.61 185.912 238.694L185.203 242.007L184.764 244.065C183.816 248.524 182.895 252.967 182.087 257.386C182.209 257.553 182.303 257.733 182.372 257.923L182.31 258.172L182.267 258.338L182.223 258.502C181.585 260.825 180.476 263.077 177.861 263.761C175.889 264.276 173.726 264.323 171.689 264.526L171.464 264.549L135.831 268.347C131.526 268.806 127.222 269.279 122.919 269.756L119.189 270.171C113.99 270.741 108.761 271.19 103.638 272.223C103.45 272.261 103.294 272.333 103.166 272.426C104.198 268.726 105.185 265.03 106.08 261.291C107.088 257.084 108.044 252.868 109.121 248.676C111.292 240.231 113.725 231.841 116.389 223.523C116.948 221.777 117.519 220.035 118.104 218.296L118.514 217.081L118.83 216.113C119.318 214.637 119.922 213.119 121.355 212.305C123.031 211.352 125.316 211.194 127.217 210.864L128.505 210.635C130.431 210.294 132.359 209.967 134.29 209.652C143.534 208.145 152.831 206.936 162.162 206.028C171.871 205.083 181.614 204.469 191.369 204.169L192.345 204.14ZM103.905 262.114L103.996 262.122L102.665 272.205C102.452 272.064 102.182 271.978 101.852 271.978C97.4861 271.99 93.3011 270.668 89.2532 269.214L88.6368 268.992L86.9182 268.366C85.1713 267.731 83.415 267.111 81.626 266.596L80.9028 266.39L80.5352 266.287C79.1807 265.912 77.7558 265.571 76.3468 265.487L76.1548 265.477L76.5651 265.273C76.6251 265.243 76.6777 265.209 76.7244 265.173C77.4999 265.228 78.277 265.213 79.095 265.073C80.6334 264.811 82.1294 264.303 83.5031 263.597L84.1166 263.282L84.3678 263.156L84.5337 263.074L84.6987 262.995C85.8785 262.438 87.0066 262.089 88.4962 262.386C90.1872 262.723 91.6691 263.587 93.1935 264.317L93.464 264.444L93.6459 264.528L93.8313 264.61L94.019 264.691C96.0803 265.571 99.361 266.519 100.151 263.863C100.469 262.796 100.22 261.797 99.6693 260.92C100.696 260.836 102.53 261.983 103.905 262.114ZM155.217 228.891L155.242 229.012C155.533 230.499 154.802 231.922 153.696 232.959C152.789 233.81 151.183 234.282 150.728 235.506C150.469 236.202 150.744 236.862 151.276 237.323L151.154 237.38L151.034 237.438L150.917 237.497L150.803 237.556L150.692 237.615C148.885 238.599 147.413 240.199 149.043 242.132C150.892 244.325 154.756 244.396 157.478 244.224L157.661 244.212C160.3 244.024 163.427 243.184 164.858 240.875C165.515 239.815 165.442 238.533 164.527 237.627C163.975 237.08 162.991 236.518 162.088 236.451C162.127 235.969 162.066 235.503 161.888 235.11C161.5 234.261 160.471 233.689 159.477 233.668C159.558 231.864 158.033 230.084 156.911 228.641L156.796 228.493L156.685 228.348C156.17 227.669 155.068 228.049 155.217 228.891ZM156.723 230.811L157.746 234.442L157.728 234.472C157.368 235.12 158.312 235.856 158.873 235.312L158.929 235.254C159.594 234.603 160.614 235.478 160.627 236.171C160.645 237.146 159.975 237.899 159.177 238.397L159.122 238.432L158.975 238.518C158.32 238.928 158.815 239.786 159.535 239.682C160.426 239.552 161.156 238.883 161.606 238.047C162.087 238.177 162.634 238.162 163.14 238.43C164.416 239.107 163.683 240.29 162.852 241.005L162.818 241.034L162.75 241.09C161.226 242.322 159.15 242.75 157.193 242.841L157.081 242.846C155.104 242.926 152.529 242.953 150.835 241.852C149.781 241.166 149.476 240.194 150.368 239.273C150.872 238.753 151.382 238.228 151.906 237.72C152.691 238.075 153.392 237.931 154.195 237.595C154.298 237.552 154.241 237.403 154.14 237.403C153.697 237.402 152.072 236.623 151.993 236.126C151.92 235.665 152.819 235.276 153.256 235.054L153.319 235.021L153.374 234.991C153.831 234.728 154.262 234.423 154.655 234.079C155.654 233.208 156.379 232.116 156.695 230.92L156.723 230.811Z" fill="white"/>
<path fill-rule="evenodd" clip-rule="evenodd" d="M61.0432 161.248C61.9396 159.113 64.9698 159.943 64.632 162.186C64.4298 163.53 63.6534 164.949 62.956 166.126C62.3882 167.085 61.7404 168.02 60.8622 168.739C62.4256 170.121 64.0483 171.453 65.7122 172.718C67.5279 174.097 69.4371 175.369 71.4106 176.538C73.141 177.563 74.9497 178.472 76.5809 179.641C78.0976 180.729 79.4793 182.037 80.1824 183.744C80.9314 185.562 80.6059 187.44 80.0543 189.257L79.991 189.462C79.4275 191.262 78.4521 193.432 79.8046 195.128C80.4932 195.991 81.4941 196.603 82.3584 197.293C83.1266 197.906 83.8477 198.573 84.5089 199.29C85.9508 200.852 87.1236 202.61 87.8636 204.569L87.9298 204.747C88.5642 206.48 89.0278 208.604 88.1706 210.307C87.9247 210.795 87.1316 210.636 86.9939 210.161C86.6825 209.085 86.6987 207.957 86.4376 206.866C86.1659 205.73 85.7138 204.653 85.1233 203.633C83.9808 201.661 82.4335 199.976 80.6054 198.552L80.0582 198.13C78.6321 197.021 77.3219 195.844 77.0324 194.008C76.7227 192.044 77.5529 190.173 78.0868 188.314C78.4589 187.019 78.5803 185.777 78.1783 184.606C77.6871 185.366 77.017 186.088 76.4869 186.731C75.4312 188.013 74.3656 189.286 73.3027 190.563C72.2129 191.871 71.1501 193.201 70.1379 194.564C69.6851 195.174 69.2372 195.788 68.7908 196.402C68.4551 196.864 67.987 197.325 67.621 197.796C67.71 198.048 67.7032 198.339 67.542 198.545C65.6015 201.03 62.8409 195.845 62.1209 194.535C60.6547 191.868 59.5635 189.034 58.0925 186.366C56.5682 183.602 54.8324 180.911 52.8978 178.387C51.7276 176.86 50.416 175.426 49.3455 173.851C46.8236 176.018 43.5051 177.471 40.4569 178.788C37.1078 180.236 33.6284 181.418 30.1946 182.674L29.1803 183.047C23.2638 185.235 17.2027 187.639 12.285 191.527C6.50619 196.094 3.08745 202.461 0.542314 209.053C-2.38755 216.643 -4.81142 224.437 -7.07093 232.227C-8.22719 236.212 -9.32431 240.216 -10.3557 244.232C-11.2646 247.771 -12.018 251.344 -13.0701 254.846C-10.9363 254.775 -8.50269 255.558 -6.68093 255.784C1.62168 256.814 9.81252 258.455 17.6512 261.298C18.6194 261.649 18.8996 262.566 18.6887 263.309C19.2471 263.159 19.8051 263.008 20.3634 262.859C19.7517 261.971 20.0437 260.383 20.0918 259.398L20.0947 259.33C20.1441 258.018 20.2944 256.705 20.3917 255.395C20.5772 252.898 20.8187 250.42 21.1397 247.938L21.2216 247.317C21.5854 244.616 21.8544 241.9 22.2513 239.204L22.2982 238.895C22.1079 238.206 21.8863 237.524 21.6537 236.846C21.0338 235.039 20.1589 233.338 19.3922 231.588C19.3018 231.382 19.6115 231.263 19.7563 231.387C21.0547 232.494 22.0861 233.898 22.9147 235.367C22.9291 235.298 22.9418 235.228 22.9568 235.159L23.0513 234.718C23.2845 233.642 23.5681 232.511 24.2643 231.638C24.3384 231.546 24.4851 231.526 24.5552 231.638C25.2215 232.707 25.2961 234.06 25.3986 235.276C25.5146 236.652 25.5291 238.045 25.5087 239.424C25.4687 242.12 25.2682 244.823 25.1085 247.514C24.9518 250.159 24.6441 252.77 24.2476 255.389L24.1722 255.88C23.9783 257.126 23.8196 258.388 23.5639 259.626L23.4917 259.963C23.355 260.577 23.2709 261.442 22.9988 262.161C29.9998 260.311 37.0115 258.502 44.0366 256.726C49.114 255.441 54.1967 254.176 59.2772 252.903C59.5453 252.445 59.8791 252.018 60.2958 251.636C61.6684 250.376 63.4874 249.814 65.1558 250.783C65.2914 250.862 65.3028 251.064 65.1558 251.14C64.8361 251.306 64.5158 251.476 64.2013 251.653L67.252 250.869C69.5322 250.284 71.8396 249.552 74.1735 249.144C78.4722 247.133 83.0956 245.678 87.6239 244.24L88.1575 244.069C90.4761 243.32 92.8743 242.481 95.2699 242.066C97.0236 241.762 99.0822 242.128 99.7874 243.831C100.68 244.389 101.52 245.044 102.331 245.689C102.917 246.154 103.479 246.65 104.05 247.132L104.155 247.219C104.622 247.603 104.992 247.86 105.107 248.472C105.166 248.788 104.954 249.214 104.543 249.173C103.286 249.045 102.264 247.664 101.411 246.839C100.752 246.202 100.088 245.542 99.4872 244.842C99.1367 245.023 98.6563 244.99 98.4332 244.59C97.2763 242.514 94.107 243.952 92.3535 244.445L89.8416 245.149C88.5857 245.502 87.3302 245.857 86.077 246.217C82.6325 247.209 79.2048 248.318 75.7291 249.229C76.0401 249.553 75.9972 250.129 75.4065 250.348C72.6858 251.36 69.701 251.883 66.8744 252.577C65.0898 253.016 63.3063 253.457 61.5234 253.901C61.2177 254.37 60.9978 254.901 60.9053 255.52C60.565 257.792 61.2212 260.414 61.8604 262.612L61.9567 262.94C62.4821 264.708 63.2552 266.874 64.864 267.99C65.2567 268.262 65.7568 268.452 66.2609 268.494C69.4103 266.958 72.5594 265.422 75.7105 263.889C76.2942 263.604 76.8336 263.989 76.9646 264.446C78.0756 264.274 79.1841 264.001 80.1938 263.677C81.8903 263.131 83.2149 262.089 84.8053 261.369C87.8827 259.976 91.0253 261.687 93.7805 262.988L94.4155 263.284C95.6511 263.852 98.2216 264.944 98.8145 263.39C99.3879 261.886 97.575 260.28 96.4041 259.603C95.0085 258.796 93.3834 258.365 91.8061 258.005C90.9055 257.8 89.9939 257.632 89.0767 257.51C88.0365 257.371 86.962 257.392 85.9603 257.072C85.4626 256.914 85.3861 256.164 85.9603 256.041C87.5022 255.708 89.3424 256.071 90.9514 256.441L91.7924 256.638C93.4134 257.015 95.0501 257.488 96.5267 258.24C97.6003 258.787 98.7336 259.618 99.4739 260.635C100.117 260.069 100.917 260.088 101.75 260.298L102.203 260.417C102.95 260.614 103.555 260.749 104.282 260.613C104.379 260.112 104.478 259.61 104.583 259.109C105.619 254.18 106.755 249.271 108.008 244.388C110.171 235.964 112.672 227.634 115.493 219.389L115.776 218.564C116.426 216.678 116.95 214.624 117.999 212.891C118.991 211.253 120.58 210.309 122.468 209.809C124.61 209.242 126.862 208.946 129.048 208.563C129.535 208.477 130.024 208.396 130.512 208.312C130.1 207.607 129.792 206.805 129.515 206.191L129.466 206.084C128.87 204.797 128.335 203.487 127.818 202.169L127.432 201.179C126.499 198.794 125.536 196.448 124.224 194.218C122.843 191.87 121.011 189.951 118.728 188.363C114.072 185.124 108.46 183.472 103.944 180.01C103.759 179.869 103.996 179.626 104.184 179.716C107.233 181.168 110.525 182.155 113.696 183.337L114.322 183.571C116.829 184.513 119.375 185.538 121.544 187.063C123.963 188.764 125.869 190.875 127.301 193.386C128.712 195.861 129.615 198.632 130.61 201.276L130.877 201.98C131.278 203.037 131.693 204.09 132.168 205.118C132.546 205.934 133.25 206.865 133.57 207.798C134.446 207.654 135.321 207.509 136.198 207.371C155.184 204.366 174.382 202.601 193.623 202.085C194.375 202.065 194.765 202.745 194.654 203.368C192.807 213.716 191.166 224.099 189.366 234.455C188.58 238.974 187.778 243.491 186.958 248.005C186.543 250.292 186.062 252.57 185.669 254.86C185.351 256.71 185.12 258.574 184.575 260.381C184.085 262.001 183.334 263.563 182.101 264.799C180.772 266.132 178.917 266.776 177.049 267.081C172.308 267.854 167.445 268.17 162.665 268.685L137.219 271.429C137.591 274.632 137.619 277.786 137.448 281.027L137.351 282.796C137.271 284.219 137.176 285.644 136.961 287.052C136.69 288.819 135.837 290.315 134.581 291.634C133.428 292.846 132.027 293.88 130.664 294.87C129.249 295.899 127.788 296.892 126.124 297.528L125.909 297.609C124.449 298.149 121.712 298.986 119.718 298.68C119.978 299.918 120.483 301.249 120.035 302.474C119.828 303.043 119.043 303.327 118.562 302.843C117.61 301.883 117.535 300.616 117.31 299.365C117.075 298.063 116.873 296.756 116.693 295.446C116.345 292.913 116.074 290.356 115.992 287.802C115.907 285.179 115.94 282.552 116.089 279.931C116.165 278.585 116.261 277.24 116.441 275.903C116.518 275.333 116.596 274.762 116.686 274.193C116.719 273.986 116.755 273.78 116.794 273.574L114.51 273.818C111.008 274.188 107.504 274.523 103.977 274.575C103.56 274.581 103.238 274.401 103.028 274.138C102.805 274.484 102.415 274.731 101.857 274.729C96.9319 274.711 92.3453 273.185 87.8656 271.386C85.6075 270.479 83.3846 269.497 81.1232 268.598C79.0124 267.759 76.7558 267.16 74.696 266.214L69.2833 268.905C69.2436 269.037 69.1927 269.162 69.1386 269.267C68.7862 269.949 68.0913 270.319 67.3817 270.597C66.7006 270.865 65.9951 270.948 65.3079 270.881C61.2029 272.919 57.097 274.956 52.9883 276.988L48.8787 279.019C40.6908 283.059 32.5352 287.166 24.2958 291.111L23.6892 291.4C20.8432 292.753 17.7873 294.124 14.629 295.147C14.5728 295.904 14.6083 296.641 14.6753 297.443L14.6914 297.618C14.7856 298.566 14.9875 299.753 14.1853 300.428C13.7681 300.778 13.0227 300.78 12.739 300.251C12.2241 299.291 12.6864 297.779 12.8495 296.737C12.9074 296.366 12.9779 295.985 13.0823 295.616C9.46161 296.637 5.73126 297.133 2.04675 296.559C-1.54057 296.001 -4.31895 293.859 -6.55881 291.239C-8.92269 288.475 -10.6025 285.253 -11.5037 281.799C-12.5294 277.869 -12.5964 273.811 -12.5723 269.785C-12.5468 265.498 -12.3794 261.191 -11.8293 256.933C-12.4321 256.798 -13.1005 256.682 -13.7096 256.722C-14.0113 257.18 -14.5965 257.372 -15.1253 257.313C-16.2752 258.515 -13.3585 259.743 -12.4263 260.051C-12.1027 260.158 -12.1373 260.656 -12.5106 260.641L-12.7458 260.63C-14.1861 260.558 -15.6741 260.325 -16.5209 259.056C-17.1995 258.039 -16.9956 256.835 -16.1867 256.006C-15.6524 251.218 -14.3751 246.556 -13.1863 241.885C-12.0197 237.301 -10.7223 232.746 -9.34712 228.214L-8.73064 226.186C-6.56551 219.08 -4.3024 211.917 -1.31578 205.094C0.175554 201.687 1.89358 198.342 4.22238 195.372C6.39316 192.602 8.95605 190.233 11.902 188.209C17.3939 184.435 23.838 182.155 30.1697 179.983L30.4532 179.886C33.7344 178.761 37.0075 177.623 40.2513 176.404C43.1201 175.326 45.8685 173.96 48.7238 172.866C48.631 172.706 48.5415 172.545 48.4553 172.381L48.4025 172.424C48.3935 172.43 48.3842 172.437 48.3746 172.443C48.0875 172.632 47.6647 172.539 47.4281 172.327C46.76 171.73 46.9862 171.067 47.4321 170.447L47.4902 170.368C48.0357 169.644 48.5222 168.878 49.0257 168.128L49.341 167.659C50.186 166.405 51.0741 165.143 52.2008 164.106C52.7227 163.626 53.2939 163.267 53.8992 162.999C53.8475 162.896 54.3013 162.684 54.4299 162.79C56.3476 162.125 58.5539 162.265 60.6446 162.448M135.988 271.562L133.321 271.849C130.388 272.165 127.454 272.471 124.519 272.774L118.145 273.431C118.128 273.775 118.084 274.112 118.076 274.372C118.035 275.713 118.004 277.054 117.974 278.396C117.915 281.084 117.98 283.776 118.167 286.459C118.348 289.059 118.586 291.66 118.957 294.242L119.032 294.759L119.076 295.03C119.379 295.058 119.676 295.194 119.923 295.474C120.462 296.084 122.414 295.491 123.177 295.233C124.43 294.811 125.611 294.096 126.701 293.38C127.765 292.68 128.723 291.865 129.643 291.005L130.397 290.299C131.146 289.594 131.896 288.842 132.355 287.954C132.978 286.75 133.058 285.273 133.241 283.962C133.466 282.349 133.733 280.736 134.016 279.132M58.5887 254.634L58.3122 254.703C48.2662 257.233 38.2352 259.837 28.1584 262.256C23.1716 263.453 18.1612 264.562 13.1683 265.736L12.3599 265.928C8.42108 266.871 4.43494 268.007 1.41865 270.715C1.30731 270.814 1.14569 270.661 1.25048 270.555C4.50126 267.275 9.12464 265.887 13.5638 264.684C14.3844 264.461 15.206 264.244 16.0268 264.023C9.98957 261.983 3.8571 260.208 -2.41691 258.943C-4.03247 258.617 -5.66684 258.377 -7.28114 258.05C-8.40696 257.822 -9.50643 257.492 -10.6204 257.218L-11.4966 257.009L-11.5082 259.634C-11.5228 263.351 -11.5158 267.065 -11.3157 270.782L-11.2778 271.47C-11.0444 275.606 -10.68 279.828 -9.13121 283.728C-7.87269 286.898 -5.8667 289.883 -3.24339 292.192C-1.916 293.36 -0.488883 294.269 1.2752 294.718C2.91316 295.134 4.62929 295.183 6.31309 295.072C14.3896 294.538 21.5791 290.38 28.5949 286.937C40.0703 281.306 51.547 275.678 63.034 270.069C62.7234 269.868 62.431 269.636 62.1651 269.375C60.6247 267.868 59.8122 265.804 59.2785 263.805C58.7104 261.677 58.3707 259.397 58.3312 257.2M73.2049 272.242C73.3063 272.191 73.4237 272.256 73.4284 272.364C73.4639 273.196 72.979 274.016 72.6168 274.765L72.5785 274.845C72.1384 275.772 71.6565 276.688 71.1581 277.589C70.162 279.389 69.1268 281.17 68.0464 282.926C65.8737 286.458 63.4593 289.842 60.6055 292.917C59.9609 293.612 58.9008 292.721 59.3145 291.973C61.3088 288.367 63.6338 284.962 66.0271 281.587C67.2252 279.897 68.4224 278.205 69.6323 276.523C70.1371 275.821 70.6483 275.122 71.1733 274.433L71.49 274.021M192.35 204.15C182.269 204.439 172.2 205.062 162.167 206.038C152.836 206.946 143.539 208.155 134.295 209.662C132.364 209.977 130.436 210.304 128.51 210.645L127.355 210.851C125.428 211.197 123.075 211.34 121.36 212.315C119.552 213.343 119.063 215.492 118.461 217.264C117.754 219.348 117.065 221.438 116.394 223.533C113.73 231.851 111.297 240.241 109.126 248.686C108.049 252.879 107.093 257.094 106.086 261.301C105.191 265.04 104.203 268.736 103.172 272.436C103.299 272.343 103.455 272.271 103.643 272.233C108.766 271.201 113.995 270.752 119.194 270.181L119.697 270.125C125.076 269.526 130.455 268.931 135.837 268.357L171.469 264.56C173.57 264.336 175.822 264.305 177.867 263.771C181.344 262.862 182.159 259.178 182.742 256.244L182.76 256.155C184.518 247.29 185.918 238.349 187.559 229.462M104.001 262.132C102.618 262.045 100.724 260.844 99.6746 260.93C100.226 261.807 100.474 262.806 100.157 263.873C99.273 266.843 95.2764 265.306 93.3513 264.399C91.773 263.655 90.2489 262.744 88.5015 262.396C86.5219 262.001 85.1808 262.747 83.5084 263.607C82.1347 264.313 80.6387 264.821 79.1003 265.083C78.2822 265.223 77.5052 265.238 76.7296 265.183C76.683 265.219 76.6303 265.253 76.5703 265.283L76.1601 265.487C78.0152 265.567 79.9048 266.11 81.6313 266.606C83.4203 267.121 85.1766 267.741 86.9235 268.376L88.6421 269.002C92.8813 270.54 97.2694 272.001 101.857 271.988C102.187 271.988 102.457 272.074 102.67 272.215M96.261 252.826C97.6277 252.668 98.8891 252.838 99.9812 253.681C101.298 254.698 102.183 256.384 104.076 256.495C104.628 256.527 104.757 257.263 104.208 257.416C102.799 257.812 101.658 257.089 100.697 256.151L100.052 255.512C99.1029 254.58 98.2277 253.86 96.6176 253.916C94.8932 253.976 93.1659 254.353 91.4527 254.545C89.512 254.763 87.5717 254.948 85.6249 255.108C85.5345 255.116 85.5191 254.981 85.6038 254.961L87.7843 254.447M94.9417 247.531L95.1671 247.51C97.1517 247.327 98.9667 247.32 100.739 248.332L101.079 248.527C102.677 249.447 104.416 250.532 105.416 252.022C105.579 252.266 105.309 252.553 105.035 252.491C103.115 252.054 101.711 250.718 100.096 249.719C98.2829 248.597 96.4105 248.782 94.3436 248.956C92.3425 249.125 90.3424 249.357 88.361 249.673C86.4991 249.97 84.6312 250.439 82.7505 250.588L82.751 250.584C82.5361 250.584 82.4136 250.278 82.6327 250.174C84.5412 249.271 86.7517 248.844 88.8279 248.431M155.23 228.941C155.038 228.071 156.167 227.668 156.69 228.358L156.801 228.503C157.931 229.971 159.566 231.812 159.482 233.678C160.476 233.699 161.506 234.271 161.893 235.12C162.072 235.513 162.132 235.979 162.093 236.461C162.996 236.528 163.981 237.09 164.533 237.637C165.448 238.544 165.52 239.825 164.863 240.885C163.432 243.194 160.306 244.035 157.666 244.222L157.572 244.229C154.846 244.407 150.918 244.359 149.048 242.142C147.245 240.004 149.238 238.273 151.282 237.333C150.75 236.872 150.474 236.212 150.733 235.516C151.188 234.293 152.794 233.82 153.701 232.969C154.808 231.932 155.538 230.509 155.247 229.022M156.728 230.821C156.428 232.06 155.689 233.192 154.661 234.089C154.267 234.433 153.837 234.738 153.38 235.001L153.325 235.031C152.919 235.247 151.922 235.651 151.998 236.136C152.077 236.633 153.702 237.412 154.145 237.413C154.246 237.413 154.303 237.562 154.2 237.605C153.397 237.941 152.696 238.085 151.911 237.73C151.387 238.238 150.878 238.763 150.373 239.283C149.481 240.204 149.786 241.176 150.841 241.862C152.535 242.963 155.109 242.937 157.086 242.856C159.075 242.776 161.202 242.355 162.755 241.1L162.823 241.044C163.668 240.332 164.439 239.126 163.146 238.44C162.639 238.172 162.092 238.188 161.611 238.057C161.161 238.893 160.431 239.562 159.541 239.692C158.821 239.796 158.325 238.938 158.98 238.528L159.127 238.442C159.949 237.944 160.651 237.178 160.632 236.181C160.62 235.488 159.599 234.613 158.934 235.264L158.904 235.295C158.348 235.89 157.368 235.141 157.734 234.482L157.751 234.452M26.9849 196.387C26.9824 196.238 27.2032 196.182 27.2803 196.311C28.5715 198.464 29.2465 201.103 29.9344 203.475C30.6549 205.96 31.2365 208.47 31.7589 210.998C32.8172 216.118 33.3811 221.209 33.4193 226.427C33.4246 227.172 32.1439 227.371 32.0186 226.607C31.1868 221.531 30.3899 216.45 29.5518 211.376C29.1301 208.823 28.6394 206.281 28.1697 203.736M39.7683 200.137C39.6732 199.84 40.1292 199.74 40.2458 200.012C42.8372 206.041 43.7148 212.873 42.0511 219.233C41.7965 220.206 40.2929 219.784 40.4849 218.824M73.1945 194.78C73.1814 194.558 73.4859 194.523 73.6006 194.676C74.8285 196.315 75.3378 198.511 77.4921 199.358C78.5677 199.782 79.778 199.708 80.7283 200.422C81.3636 200.9 81.8508 201.655 81.374 202.379C81.2202 202.613 80.7896 202.73 80.5809 202.476C80.2762 202.105 80.115 201.662 79.7011 201.385C79.1174 200.993 78.3302 200.969 77.6609 200.785C76.7952 200.547 76.0321 200.131 75.4071 199.512M93.7082 167.432C93.8348 167.371 93.9563 167.41 94.0372 167.514C94.1527 167.662 94.1386 167.805 93.997 167.907C94.1861 168.273 94.4094 169.19 94.4413 169.324C94.5706 169.865 94.7082 170.404 94.852 170.941C95.1423 172.026 95.3967 173.119 95.6872 174.204C95.9952 175.354 96.3622 176.492 96.7706 177.613C96.7969 177.686 96.8259 177.76 96.8563 177.835L96.9028 177.949L96.9142 177.932C96.9972 177.807 97.1701 177.894 97.1496 178.026C97.1306 178.145 97.105 178.265 97.0834 178.384L97.1262 178.492C97.3934 179.173 97.5763 179.891 97.0862 180.492C96.9028 180.717 96.701 180.85 96.4496 180.89C96.0465 182.149 95.5408 183.385 94.9993 184.572L94.8406 184.919C94.0441 186.651 93.1946 188.36 91.9264 189.834C90.5417 191.444 88.6372 192.543 87.431 194.307C86.8699 195.128 86.4795 195.991 86.1626 196.917L86.0434 197.269C85.8184 197.924 85.5589 198.56 84.9102 198.944C84.7032 199.067 84.393 199.028 84.2261 198.861C82.8958 197.527 84.2884 195.036 85.0906 193.745C86.2057 191.949 87.8196 190.801 89.4356 189.446C91.1775 187.986 92.2885 186.032 93.3632 184.108C94.0215 182.929 94.657 181.725 95.3261 180.541C94.6271 179.955 94.4033 178.792 94.1665 177.983L94.1449 177.911C93.7534 176.616 93.4425 175.288 93.246 173.954C93.0569 172.671 92.978 171.407 93.028 170.117L93.0425 169.788M96.3073 173.537C96.1529 173.337 96.4085 173.11 96.6204 173.151C97.9088 173.404 99.1684 174.143 100.325 174.741L100.448 174.804C101.371 175.276 102.3 175.854 102.785 176.77C103.312 177.766 103.268 178.913 103.196 179.996L103.19 180.097C103.101 181.395 103.087 182.744 102.797 184.018C102.649 184.671 102.026 184.855 101.493 184.7C100.858 186.598 99.0768 187.997 97.7754 189.494C96.1161 191.404 96.4284 193.982 96.6018 196.281C96.672 197.212 95.45 197.477 94.8206 196.98L93.3702 195.839C93.1287 195.648 92.8874 195.457 92.6469 195.265C92.4408 195.101 92.2367 194.936 92.0342 194.768L91.7317 194.515C91.5975 194.401 91.0058 193.775 90.8327 193.748C90.4136 193.685 89.4179 194.732 89.0772 195.06L89.034 195.101C88.3926 195.697 87.8131 196.339 87.2733 197.019C87.174 197.144 86.9798 197.04 87.0508 196.896C87.5345 195.914 88.0969 194.975 88.7647 194.096L88.8996 193.921C89.3439 193.354 89.9403 192.352 90.7246 192.185C91.6821 191.98 92.6383 192.89 93.335 193.395L93.3791 193.427C93.7106 193.663 94.0383 193.902 94.3653 194.144C94.3311 192.432 94.5593 190.702 95.492 189.226C96.1497 188.186 97.1351 187.415 97.9782 186.521C98.9169 185.525 99.407 184.301 100.257 183.264C100.366 183.131 100.517 183.059 100.68 183.036C100.713 182.203 100.843 181.361 100.943 180.536L100.972 180.289C101.073 179.393 101.312 178.299 100.849 177.46C100.412 176.667 99.4086 176.108 98.6657 175.57L98.0591 175.124M54.4944 164.063C54.1065 164.276 53.7439 164.54 53.415 164.871C52.3796 165.912 51.6393 167.207 50.9189 168.453C50.531 169.125 50.157 169.803 49.766 170.473C49.5959 170.764 49.421 171.052 49.2442 171.34C49.1624 171.472 48.9194 171.736 48.799 171.898C48.9328 172.076 49.0712 172.251 49.2123 172.424C49.2661 172.49 52.9804 176.325 54.2751 177.825C56.2576 180.124 58.0297 182.552 59.5447 185.151C61.0282 187.696 62.1577 190.391 63.532 192.985C64.2199 194.284 64.988 195.574 65.9673 196.698C66.0051 196.742 66.045 196.783 66.0837 196.827C66.4574 195.87 67.415 194.845 67.8853 194.257L67.9293 194.201C68.996 192.839 70.1225 191.517 71.2734 190.218C72.3247 189.031 73.4027 187.87 74.5068 186.729L74.922 186.302C75.6913 185.514 76.6684 184.336 77.7944 183.773C77.6738 183.569 77.5342 183.368 77.3736 183.169C76.3185 181.862 74.8271 180.914 73.3555 180.058L72.4011 179.508C68.8036 177.43 65.2622 175.256 62.1391 172.557C60.4868 171.128 58.8573 169.632 57.4684 167.966L56.9772 167.377M60.4969 163.034C58.8122 163.168 56.993 163.137 55.4362 163.657C56.8202 164.897 58.1358 166.236 59.4872 167.497C59.6075 166.644 59.8534 165.801 60.0617 164.97" fill="black"/>
<path fill-rule="evenodd" clip-rule="evenodd" d="M112.086 129.977C111.632 126.19 112.22 118.274 112.259 117.793C112.508 114.752 111.008 102.746 108.172 103.852C103.416 100.276 97.0804 99.4864 91.1563 99.1091C78.8512 98.3255 65.7607 100.124 56.2589 107.989C51.56 112.074 46.9853 118.014 47.353 124.2C43.0837 130.063 37.0649 138.105 42.3843 144.96C44.1924 147.15 47.0662 147.965 49.3377 149.624C53.9065 153.123 56.773 158.146 61.3852 161.625C73.6045 172.054 94.3529 174.232 106.358 162.371C115.642 153.78 114.141 140.929 112.508 129.977C111.41 122.614 112.972 137.366 112.086 129.977Z" fill="#ECB998"/>
<path fill-rule="evenodd" clip-rule="evenodd" d="M74.7184 83.048C78.0093 82.4173 81.3886 82.0249 84.7493 82.143L85.0084 82.1526C87.537 82.2486 90.7393 82.4609 92.9452 83.8574C93.0721 83.7364 93.2762 83.6743 93.4613 83.7582C96.0827 84.9466 98.9659 85.8058 101.726 86.6595C104.473 87.5091 107.324 88.0699 110.203 88.296C111.287 88.3811 112.214 89.4921 111.528 90.4887C111.365 90.7261 111.206 90.966 111.047 91.2065C111.312 91.1802 111.577 91.1532 111.842 91.1278C112.713 91.0445 113.584 91.9277 113.532 92.7334C113.5 93.2402 113.442 93.7409 113.357 94.2357C113.689 94.2291 114.019 94.2763 114.338 94.4043C115.952 95.0516 115.839 96.8775 115.718 98.2667C115.551 100.194 114.792 102.236 113.382 103.679C114.435 104.717 115.18 105.957 115.624 107.43C115.947 108.505 116.126 109.65 116.037 110.769L116.009 111.105C115.9 112.319 115.682 113.664 114.762 114.538C114.29 114.988 113.708 115.152 113.153 115.1C113.489 117.899 113.704 120.715 113.906 123.52L114.001 124.861C114.452 131.344 114.792 137.869 114.703 144.363C114.62 150.432 113.358 156.323 109.439 161.251C105.869 165.738 100.744 169.045 94.9468 170.303C91.8224 170.982 88.6326 171.03 85.4703 170.597C83.9374 170.387 82.3944 170.065 80.9395 169.556C79.3291 168.991 78.1717 168.16 77.088 166.915C76.5755 166.324 76.8222 165.067 77.8428 165.185C79.3863 165.363 80.7953 165.577 82.2751 166.011L82.487 166.074C83.9608 166.522 85.4872 166.857 87.0281 166.999C90.1843 167.289 93.3886 166.997 96.412 166.088C101.335 164.606 105.574 161.305 108.292 157.156C111.517 152.238 111.882 146.656 111.835 141.002C111.786 134.797 111.573 128.589 111.226 122.39L111.167 121.357C110.984 118.168 110.807 114.976 110.651 111.785C110.602 110.783 110.529 109.774 110.396 108.775C109.179 108.098 108.089 107.165 107.379 106.014C105.952 106.575 104.451 106.979 103.07 107.301C99.8705 108.049 96.5492 108.23 93.2931 107.762C92.4148 108.107 91.519 108.41 90.6095 108.67C90.3637 108.774 90.1179 108.876 89.8723 108.975C87.6795 109.866 85.4553 110.621 83.1407 111.174L82.5721 111.309C81.354 111.594 80.0309 111.875 78.7345 111.963C78.5216 112.041 78.2918 112.107 78.0407 112.165C76.8603 112.437 75.6353 112.523 74.4253 112.427C73.2466 112.333 72.3949 111.202 73.0443 110.143C73.5186 109.37 73.9974 108.599 74.4802 107.83C72.7999 108.495 71.0648 109.047 69.315 109.516C67.5483 109.989 65.7564 110.387 63.962 110.753C63.0028 110.948 62.0396 111.12 61.0824 111.314C60.3973 111.452 59.3453 111.524 58.7864 111.953C58.1689 112.423 57.9939 113.521 57.7597 114.197C57.4519 115.076 57.163 115.959 56.8995 116.852C56.3748 118.634 55.9447 120.442 55.6116 122.268C55.2785 124.096 55.0548 125.943 54.9304 127.795C54.8063 129.645 54.8609 131.507 54.6608 133.349C54.5531 134.326 53.4486 134.829 52.6327 134.146C52.537 134.066 52.4405 133.985 52.345 133.903L52.2026 133.779C51.5046 133.179 50.8278 132.542 50.2694 131.825C50.1682 131.693 50.0712 131.555 49.9805 131.415C49.9658 131.415 49.9531 131.411 49.9384 131.401L49.7835 131.29C48.0785 130.085 45.2299 128.513 43.5673 130.516C43.0376 131.154 42.7663 131.966 42.5412 132.75L42.1462 134.152C41.8907 135.068 41.6502 135.988 41.5095 136.925C41.1912 139.023 41.3514 141.442 42.8716 143.124C43.4788 143.797 44.3158 144.277 45.2495 144.403C45.7704 144.472 46.2848 144.387 46.8014 144.325C47.3263 144.263 47.8321 144.363 48.3572 144.315C49.1921 144.237 49.5568 145.186 49.2448 145.783C49.0761 146.103 48.8777 146.38 48.6524 146.614C48.8335 146.762 49.0065 146.922 49.1731 147.091C49.6664 147.241 50.1089 147.563 50.4401 147.99C50.7079 148.334 50.8468 148.708 50.8702 149.103C50.8995 149.201 50.9248 149.301 50.9482 149.403L51.4005 150.1C51.5 150.253 51.5991 150.404 51.6985 150.552C52.8496 152.274 54.1274 153.732 55.7149 155.106C57.2434 156.427 58.9023 157.61 60.3382 159.028L60.5074 159.196C61.846 160.536 63.2571 162.158 62.7332 164.106C62.5982 164.606 61.8623 164.967 61.3818 164.628C59.8365 163.539 59.0583 161.813 57.7472 160.492C56.3978 159.13 54.903 157.907 53.5498 156.549C52.2699 155.268 51.26 153.816 50.4992 152.218C50.1954 152.537 49.7529 152.763 49.1394 152.851C48.0853 153.001 47.1026 152.415 46.6432 151.548C46.3479 151.672 46.0466 151.784 45.7428 151.872C44.1448 152.336 43.1394 150.649 43.7423 149.401C44.0647 148.732 44.4673 148.152 44.9672 147.663C43.4048 147.459 41.8152 146.692 40.7885 145.735C38.2125 143.33 37.8583 139.716 38.438 136.503C38.7458 134.799 39.2769 133.075 39.9665 131.475C40.0865 131.197 40.2153 130.916 40.3563 130.64C40.2783 130.638 40.1982 130.606 40.1476 130.544C39.6817 129.939 39.1148 129.445 38.7688 128.768C38.4505 128.147 38.0965 127.518 37.8454 126.872C37.3291 125.548 37.0761 124.054 36.9075 122.655C36.5596 119.79 36.6943 116.942 37.1562 114.095C37.9424 109.246 39.8415 104.605 42.6393 100.533C42.487 100.457 42.341 100.365 42.2049 100.256L42.1378 100.201L42.0286 100.107C41.2302 99.4208 41.2991 98.1347 42.0286 97.4397L42.2589 97.2204C42.5507 96.9451 42.8022 96.7271 43.2735 96.4274C43.343 96.3831 43.4141 96.3415 43.486 96.3026C43.2393 95.8697 43.1537 95.3636 43.3255 94.8051C43.9243 92.8597 46.8716 92.9286 48.7396 93.777C50.8063 92.0252 53.098 90.5045 55.5819 89.2731C61.4977 86.3418 68.1869 84.2975 74.7184 83.048ZM44.1387 134.286C45.2434 133.944 46.7108 134.662 47.7037 135.095C48.9623 135.644 50.0333 136.454 51.0706 137.311C51.5871 137.74 51.6796 138.441 51.5512 139.039C51.5384 139.099 51.5259 139.162 51.511 139.224C51.3739 139.862 50.6234 140.365 49.9593 140.347C48.57 140.311 47.9082 139.172 47.1217 138.206C47.0291 138.363 46.9132 138.507 46.7696 138.615L46.6726 138.687C46.3463 138.923 45.9865 139.112 45.5552 139.093C45.2496 139.079 44.9567 139.005 44.6867 138.871C44.012 138.533 43.715 137.704 43.8982 137.029C44.012 136.605 44.2734 136.272 44.615 136.042L44.4877 135.959C44.2153 135.779 43.9668 135.589 43.7732 135.309L43.7295 135.243H43.7464C43.5356 134.899 43.6728 134.43 44.1387 134.286Z" fill="black"/>
<ellipse cx="79.4931" cy="130.581" rx="10.9013" ry="8.41376" fill="white"/>
<ellipse cx="103.81" cy="129.776" rx="8.34507" ry="7.60861" fill="white"/>
<path fill-rule="evenodd" clip-rule="evenodd" d="M80.1118 144.21C80.1561 144.171 80.2263 144.158 80.2797 144.189C81.1939 144.737 81.3021 146.579 81.3124 147.643C81.6906 147.737 82.0641 147.843 82.4173 147.917C83.1674 148.074 83.9217 148.211 84.6744 148.356L85.2386 148.466C87.1244 148.843 89.0454 149.122 90.9671 149.261C92.8322 149.397 94.7513 149.446 96.6111 149.218C97.4097 149.121 98.2037 148.957 98.9754 148.739C99.8877 148.481 100.614 148.054 101.463 147.679C103.587 146.742 105.367 149.489 103.323 150.695C101.568 151.73 99.1738 152.103 97.1482 152.263C95.0778 152.426 93.0154 152.247 90.9699 151.937C88.7585 151.601 86.5926 151.085 84.4954 150.338C83.6086 150.021 82.7504 149.638 81.9125 149.219L81.6844 149.104C81.5452 149.033 81.4001 148.961 81.2541 148.888C81.0971 150.215 80.6448 151.497 80.0982 152.729L80.0854 152.707C79.7864 153.679 78.7064 154.281 77.6319 153.851C76.3707 153.348 76.2749 152.026 77.0087 151.088L77.0437 151.044C77.9066 149.992 78.4472 148.687 78.9171 147.443C79.1581 146.805 79.3812 146.152 79.5747 145.5C79.7148 145.028 79.7199 144.553 80.1118 144.21ZM112.611 133.644C111.864 135.785 110.234 137.433 107.962 138.158C105.712 138.877 103.208 138.615 100.907 138.227C100.404 138.142 99.8939 138.048 99.3847 137.938C99.8014 138.183 100.17 138.527 100.522 138.891C101.043 139.43 101.515 139.997 101.658 140.671C101.801 141.34 101.577 141.848 101.168 142.232C100.54 142.823 99.5257 143.141 98.667 143.317C96.7441 143.71 94.8179 143.649 92.9045 143.245C92.4159 143.142 92.0847 142.894 91.8987 142.57C91.6728 142.177 91.6543 141.688 91.7839 141.242C91.9134 140.797 92.1934 140.386 92.5997 140.159C92.9341 139.972 93.3524 139.921 93.8271 140.07C94.78 140.371 95.726 140.57 96.7325 140.593C97.1585 140.602 97.5873 140.59 98.0126 140.553C98.2531 140.532 98.4932 140.503 98.7318 140.467C98.5912 140.29 98.4547 140.109 98.3213 139.927C98.1637 139.711 98.0101 139.492 97.8636 139.27C97.4397 138.627 97.0868 137.965 96.7767 137.267C96.6772 137.044 96.585 136.819 96.4964 136.594C96.4837 136.561 96.471 136.529 96.4583 136.496C96.4309 136.475 96.4038 136.453 96.3769 136.431C95.7703 135.934 95.2618 135.321 94.902 134.562C93.9281 132.506 94.0867 129.955 94.6777 127.821C95.1512 126.11 96.1966 124.528 97.5777 123.453C97.8189 123.077 97.9781 122.848 98.1732 122.656C98.9669 121.874 100.074 121.346 101.155 121.025C103.569 120.307 106.198 120.822 108.245 122.188C110.134 123.449 111.613 125.341 112.413 127.445C113.17 129.437 113.317 131.622 112.611 133.644ZM79.7298 120.631C82.6007 120.608 85.5217 121.411 87.8513 123.019C90.0802 124.557 91.8299 126.829 91.8278 129.534C91.8257 132.168 90.3401 134.758 88.6924 136.797C86.843 139.086 84.4261 140.19 81.3872 140.216C79.8076 140.229 78.2164 140.096 76.6481 139.914L75.8068 139.814C74.6481 139.672 73.4774 139.504 72.3792 139.127C67.1516 137.33 66.9897 130.845 68.9258 126.7C70.4207 123.499 74.2043 120.378 77.9771 120.753C78.5456 120.677 79.1294 120.636 79.7298 120.631ZM84.5786 123.681C80.9835 122.152 76.6153 122.61 73.1279 124.242C71.7464 125.67 70.7368 127.47 70.3282 129.123C69.8919 130.887 69.9557 132.788 70.6117 134.497C71.4126 136.585 73.3848 137.102 75.5123 137.423L76.3382 137.546L76.6848 137.595C78.7752 137.891 81.0606 138.121 83.0695 137.751C85.3084 137.338 86.7303 135.624 87.8494 133.866L87.9016 133.784C89.0638 131.943 90.0367 129.703 89.0619 127.593C88.2331 125.8 86.4228 124.466 84.5786 123.681ZM105.798 124.214C104.565 123.566 103.157 123.448 101.825 123.882C101.252 124.069 100.757 124.371 100.276 124.71L100.085 124.847C99.4944 125.277 98.9428 125.494 98.4997 126.075L98.4426 126.153C98.219 126.469 97.828 126.595 97.4718 126.553C97.0566 127.638 96.8853 128.811 96.8818 129.966L96.8822 130.119L96.8843 130.275C96.9109 131.64 97.1622 133.309 98.2953 134.224C99.3288 135.058 100.894 135.259 102.291 135.375L103.368 135.46L103.654 135.48C105.127 135.577 106.74 135.544 107.975 134.718C109.049 133.998 109.556 132.777 109.688 131.571C109.999 128.722 108.477 125.621 105.798 124.214ZM78.9424 124.477C80.9222 123.519 83.3005 123.759 84.9775 124.96C84.8286 124.987 84.682 125.023 84.5358 125.092C84.1553 125.273 83.9191 125.635 83.8291 126.02C83.7277 126.456 83.9658 126.868 84.4193 127.005C84.814 127.125 85.282 127.179 85.6485 126.952C85.8405 126.833 85.9747 126.676 86.0628 126.479L86.0753 126.45L86.0907 126.429L86.0966 126.419C86.098 126.415 86.091 126.422 86.0801 126.438C86.0913 126.414 86.1017 126.389 86.112 126.364C86.1274 126.334 86.1422 126.304 86.1543 126.273C86.1756 126.256 86.1951 126.236 86.2147 126.217C86.5193 126.661 86.7585 127.163 86.9104 127.721C87.8852 131.304 83.888 135.023 80.317 135.395C78.9674 135.535 77.7367 135.231 76.7155 134.63C76.7248 134.619 76.7351 134.608 76.7436 134.596C77.1539 134.665 77.6436 134.491 77.7925 134.058C78.1726 132.952 77.7828 131.657 76.511 131.296C75.6925 131.063 74.8551 131.32 74.2701 131.851C73.8277 130.824 73.6694 129.669 73.8788 128.512C74.1741 126.88 75.2131 125.409 76.8302 124.729C77.6176 124.398 78.2962 124.329 78.9424 124.477ZM99.7918 126.688L99.852 126.598C100.464 125.706 101.633 124.611 102.845 124.912C103.016 124.954 103.182 125.022 103.333 125.111C103.999 125.025 104.696 125.168 105.268 125.502L105.253 125.539C105.25 125.546 105.248 125.552 105.246 125.559C105.194 125.776 105.225 125.976 105.332 126.176C105.448 126.392 105.613 126.597 105.837 126.721C105.991 126.806 106.171 126.85 106.348 126.847C106.608 126.842 106.836 126.734 107.024 126.569C107.126 126.479 107.197 126.347 107.237 126.212C107.329 126.296 107.419 126.39 107.505 126.496C108.91 128.247 108.716 131.061 107.067 132.622C107 132.685 106.93 132.742 106.86 132.8C106.19 133.673 105.159 134.266 103.92 134.386C102.773 134.497 101.625 134.175 100.746 133.516C100.816 133.481 100.883 133.434 100.94 133.373C101.09 133.212 101.213 133.053 101.305 132.856C101.328 132.807 101.35 132.757 101.371 132.706L101.401 132.631C101.407 132.617 101.453 132.488 101.441 132.511L101.438 132.516L101.455 132.479C101.612 132.107 101.548 131.681 101.175 131.447L101.134 131.423C101.011 131.356 100.86 131.324 100.707 131.323C100.325 130.881 99.7575 130.779 99.2245 130.909L99.2058 130.766C99.203 130.742 99.2005 130.718 99.1987 130.694C98.7857 129.396 98.9849 127.922 99.7918 126.688ZM81.4544 113.623L81.5916 113.603C82.6286 113.461 83.3336 113.624 84.0078 114.464C84.3292 114.864 84.2301 115.469 84.0078 115.878C83.2899 117.2 81.315 116.926 79.9849 117.189C78.6862 117.445 77.3907 117.794 76.1755 118.301C74.9356 118.819 73.7717 119.431 72.6368 120.131C71.6102 120.763 70.6792 121.715 69.5064 122.083C69.4536 122.1 69.39 122.055 69.3933 122.002C69.4768 120.738 70.5908 119.577 71.4537 118.677C72.4517 117.636 73.6654 116.712 74.9294 115.977C76.2338 115.219 77.6438 114.595 79.1037 114.16C79.8725 113.93 80.659 113.748 81.4544 113.623ZM97.2523 115.339C98.5579 113.53 101.804 113.877 103.719 114.36C106.12 114.966 108.722 116.192 110.406 117.966C111.914 119.555 109.657 121.62 107.961 120.282L107.509 119.927L107.219 119.701C105.917 118.693 104.628 117.781 103.041 117.109C101.181 116.322 99.2954 115.938 97.3292 115.518C97.2518 115.502 97.2064 115.403 97.2523 115.339Z" fill="black"/>
<path fill-rule="evenodd" clip-rule="evenodd" d="M77.4491 155.844C79.1595 152.046 82.8927 149.255 87.191 148.235C90.3473 147.487 93.6598 147.511 96.8774 147.808C98.5632 147.962 100.371 148.088 101.96 148.682C103.317 149.189 104.422 150.147 105.254 151.271C106.243 152.604 106.916 154.129 107.389 155.693C107.456 155.915 107.519 156.139 107.578 156.364C107.372 157.544 106.936 158.548 105.783 159.289C104.658 160.014 103.316 160.31 101.978 160.415C101.847 160.355 101.72 160.294 101.604 160.231C99.5183 159.1 98.0507 156.426 95.4188 156.788C93.0701 157.111 91.524 159.912 90.1273 161.554C85.6438 162.05 81.1637 160.773 77.5157 158.343C77.3305 157.511 77.3197 156.673 77.4491 155.844M110.625 152.963C110.266 152.009 109.815 151.085 109.279 150.215C107.509 147.337 104.792 145.044 101.566 143.733C93.9341 140.636 84.0599 142.819 77.897 147.898C75.7918 149.634 73.6631 152.185 73.0194 154.93C72.8272 154.966 72.6457 155.061 72.4963 155.194C68.0437 152.537 63.4583 149.981 59.8702 146.298C57.2645 143.622 55.4522 140.456 54.3424 136.976C54.2516 136.689 53.7643 136.731 53.779 137.048C53.7833 137.122 53.7875 137.196 53.7917 137.27C53.7453 137.134 53.5258 137.204 53.509 137.337C52.9119 141.564 52.165 146.046 52.8528 150.295C53.2642 152.831 54.4795 154.687 56.1041 156.691C57.8448 158.84 59.8154 160.838 61.8303 162.755C63.1089 163.971 64.4444 165.374 66.01 166.266C67.8308 167.302 69.8963 168.09 71.8395 168.89C73.8165 169.706 75.823 170.459 77.8674 171.113C81.9543 172.424 86.1782 173.33 90.476 173.727C93.9172 174.043 97.85 174.388 101.148 173.161C103.675 172.221 105.716 170.522 107.334 168.477C109.096 166.25 110.488 163.714 111.258 161.039C112.058 158.26 110.794 153.411 110.625 152.963" fill="black"/>
<path fill-rule="evenodd" clip-rule="evenodd" d="M115.178 136.475C112.613 138.987 108.331 139.707 104.919 138.36C96.156 134.891 100.445 124.068 107.203 121.162C108.047 120.963 109.175 120.489 110.203 120.382C110.296 120.339 110.498 120.464 110.743 120.346C118.195 121.134 119.892 132.097 115.178 136.475M86.9152 137.118C84.0383 140.734 78.6899 141.85 74.32 140.169C65.6872 136.947 68.7491 127.35 74.6555 123.588C87.1323 119.144 92.2845 130.45 86.9152 137.118M68.2011 129.105C68.193 129.101 68.185 129.1 68.1768 129.096C68.2224 129.077 68.268 129.058 68.3135 129.039C68.2987 129.075 68.2826 129.111 68.2683 129.148C68.2459 129.133 68.2262 129.116 68.2011 129.105M121.117 125.196C120.413 125.197 119.395 125.307 118.812 125.77C117.374 121.174 112.067 116.921 107.451 120.023C103.816 121.13 101.119 123.587 99.5861 126.854C96.8221 125.296 92.4759 125.961 90.0791 128.022C88.5094 123.106 84.6461 121.384 80.0479 121.13C75.029 120.351 70.0266 124.971 68.4658 128.677C67.168 128.537 65.2287 128.145 64.0078 128.904C56.0838 126.935 42.2299 125.849 40.619 126.943C39.471 127.361 38.841 129.929 40.4445 130.067C41.8418 129.879 40.2814 128.186 41.6899 128.001C49.1948 127.56 56.4804 128.992 63.9058 129.593C64.5687 130.439 66.7108 130.721 67.8535 130.382C66.0537 136.668 69.939 140.945 75.7604 142.226C84.7746 144.188 92.6171 136.546 90.2599 128.597C92.9906 127.31 96.1315 127.365 99.1061 128.043C94.1354 145.381 123.598 144.603 118.997 126.364C122.059 127.808 122.724 125.487 121.117 125.196" fill="#9F6158"/>
</svg>
